<?xml version="1.0" encoding="utf-8"?>
<svg xmlns="http://www.w3.org/2000/svg" xmlns:xlink="http://www.w3.org/1999/xlink" width="600" height="400" viewBox="0 0 2400 1600">
<defs>
  <clipPath id="clip880">
    <rect x="0" y="0" width="2400" height="1600"/>
  </clipPath>
</defs>
<path clip-path="url(#clip880)" d="M0 1600 L2400 1600 L2400 0 L0 0  Z" fill="#ffffff" fill-rule="evenodd" fill-opacity="1"/>
<defs>
  <clipPath id="clip881">
    <rect x="234" y="123" width="2120" height="1301"/>
  </clipPath>
</defs>
<path clip-path="url(#clip880)" d="M234.125 1423.18 L2352.76 1423.18 L2352.76 123.472 L234.125 123.472  Z" fill="#ffffff" fill-rule="evenodd" fill-opacity="1"/>
<polyline clip-path="url(#clip880)" style="stroke:#000000; stroke-linecap:round; stroke-linejoin:round; stroke-width:4; stroke-opacity:1; fill:none" points="234.125,1423.18 2352.76,1423.18 "/>
<polyline clip-path="url(#clip880)" style="stroke:#000000; stroke-linecap:round; stroke-linejoin:round; stroke-width:4; stroke-opacity:1; fill:none" points="234.125,123.472 2352.76,123.472 "/>
<polyline clip-path="url(#clip880)" style="stroke:#000000; stroke-linecap:round; stroke-linejoin:round; stroke-width:4; stroke-opacity:1; fill:none" points="603.591,1423.18 603.591,1404.28 "/>
<polyline clip-path="url(#clip880)" style="stroke:#000000; stroke-linecap:round; stroke-linejoin:round; stroke-width:4; stroke-opacity:1; fill:none" points="1027.85,1423.18 1027.85,1404.28 "/>
<polyline clip-path="url(#clip880)" style="stroke:#000000; stroke-linecap:round; stroke-linejoin:round; stroke-width:4; stroke-opacity:1; fill:none" points="1452.11,1423.18 1452.11,1404.28 "/>
<polyline clip-path="url(#clip880)" style="stroke:#000000; stroke-linecap:round; stroke-linejoin:round; stroke-width:4; stroke-opacity:1; fill:none" points="1876.37,1423.18 1876.37,1404.28 "/>
<polyline clip-path="url(#clip880)" style="stroke:#000000; stroke-linecap:round; stroke-linejoin:round; stroke-width:4; stroke-opacity:1; fill:none" points="2300.63,1423.18 2300.63,1404.28 "/>
<polyline clip-path="url(#clip880)" style="stroke:#000000; stroke-linecap:round; stroke-linejoin:round; stroke-width:4; stroke-opacity:1; fill:none" points="603.591,123.472 603.591,142.37 "/>
<polyline clip-path="url(#clip880)" style="stroke:#000000; stroke-linecap:round; stroke-linejoin:round; stroke-width:4; stroke-opacity:1; fill:none" points="1027.85,123.472 1027.85,142.37 "/>
<polyline clip-path="url(#clip880)" style="stroke:#000000; stroke-linecap:round; stroke-linejoin:round; stroke-width:4; stroke-opacity:1; fill:none" points="1452.11,123.472 1452.11,142.37 "/>
<polyline clip-path="url(#clip880)" style="stroke:#000000; stroke-linecap:round; stroke-linejoin:round; stroke-width:4; stroke-opacity:1; fill:none" points="1876.37,123.472 1876.37,142.37 "/>
<polyline clip-path="url(#clip880)" style="stroke:#000000; stroke-linecap:round; stroke-linejoin:round; stroke-width:4; stroke-opacity:1; fill:none" points="2300.63,123.472 2300.63,142.37 "/>
<polyline clip-path="url(#clip880)" style="stroke:#000000; stroke-linecap:round; stroke-linejoin:round; stroke-width:4; stroke-opacity:1; fill:none" points="264.184,1423.18 264.184,1413.73 "/>
<polyline clip-path="url(#clip880)" style="stroke:#000000; stroke-linecap:round; stroke-linejoin:round; stroke-width:4; stroke-opacity:1; fill:none" points="349.036,1423.18 349.036,1413.73 "/>
<polyline clip-path="url(#clip880)" style="stroke:#000000; stroke-linecap:round; stroke-linejoin:round; stroke-width:4; stroke-opacity:1; fill:none" points="433.888,1423.18 433.888,1413.73 "/>
<polyline clip-path="url(#clip880)" style="stroke:#000000; stroke-linecap:round; stroke-linejoin:round; stroke-width:4; stroke-opacity:1; fill:none" points="518.74,1423.18 518.74,1413.73 "/>
<polyline clip-path="url(#clip880)" style="stroke:#000000; stroke-linecap:round; stroke-linejoin:round; stroke-width:4; stroke-opacity:1; fill:none" points="688.443,1423.18 688.443,1413.73 "/>
<polyline clip-path="url(#clip880)" style="stroke:#000000; stroke-linecap:round; stroke-linejoin:round; stroke-width:4; stroke-opacity:1; fill:none" points="773.295,1423.18 773.295,1413.73 "/>
<polyline clip-path="url(#clip880)" style="stroke:#000000; stroke-linecap:round; stroke-linejoin:round; stroke-width:4; stroke-opacity:1; fill:none" points="858.147,1423.18 858.147,1413.73 "/>
<polyline clip-path="url(#clip880)" style="stroke:#000000; stroke-linecap:round; stroke-linejoin:round; stroke-width:4; stroke-opacity:1; fill:none" points="942.998,1423.18 942.998,1413.73 "/>
<polyline clip-path="url(#clip880)" style="stroke:#000000; stroke-linecap:round; stroke-linejoin:round; stroke-width:4; stroke-opacity:1; fill:none" points="1112.7,1423.18 1112.7,1413.73 "/>
<polyline clip-path="url(#clip880)" style="stroke:#000000; stroke-linecap:round; stroke-linejoin:round; stroke-width:4; stroke-opacity:1; fill:none" points="1197.55,1423.18 1197.55,1413.73 "/>
<polyline clip-path="url(#clip880)" style="stroke:#000000; stroke-linecap:round; stroke-linejoin:round; stroke-width:4; stroke-opacity:1; fill:none" points="1282.41,1423.18 1282.41,1413.73 "/>
<polyline clip-path="url(#clip880)" style="stroke:#000000; stroke-linecap:round; stroke-linejoin:round; stroke-width:4; stroke-opacity:1; fill:none" points="1367.26,1423.18 1367.26,1413.73 "/>
<polyline clip-path="url(#clip880)" style="stroke:#000000; stroke-linecap:round; stroke-linejoin:round; stroke-width:4; stroke-opacity:1; fill:none" points="1536.96,1423.18 1536.96,1413.73 "/>
<polyline clip-path="url(#clip880)" style="stroke:#000000; stroke-linecap:round; stroke-linejoin:round; stroke-width:4; stroke-opacity:1; fill:none" points="1621.81,1423.18 1621.81,1413.73 "/>
<polyline clip-path="url(#clip880)" style="stroke:#000000; stroke-linecap:round; stroke-linejoin:round; stroke-width:4; stroke-opacity:1; fill:none" points="1706.66,1423.18 1706.66,1413.73 "/>
<polyline clip-path="url(#clip880)" style="stroke:#000000; stroke-linecap:round; stroke-linejoin:round; stroke-width:4; stroke-opacity:1; fill:none" points="1791.52,1423.18 1791.52,1413.73 "/>
<polyline clip-path="url(#clip880)" style="stroke:#000000; stroke-linecap:round; stroke-linejoin:round; stroke-width:4; stroke-opacity:1; fill:none" points="1961.22,1423.18 1961.22,1413.73 "/>
<polyline clip-path="url(#clip880)" style="stroke:#000000; stroke-linecap:round; stroke-linejoin:round; stroke-width:4; stroke-opacity:1; fill:none" points="2046.07,1423.18 2046.07,1413.73 "/>
<polyline clip-path="url(#clip880)" style="stroke:#000000; stroke-linecap:round; stroke-linejoin:round; stroke-width:4; stroke-opacity:1; fill:none" points="2130.92,1423.18 2130.92,1413.73 "/>
<polyline clip-path="url(#clip880)" style="stroke:#000000; stroke-linecap:round; stroke-linejoin:round; stroke-width:4; stroke-opacity:1; fill:none" points="2215.77,1423.18 2215.77,1413.73 "/>
<polyline clip-path="url(#clip880)" style="stroke:#000000; stroke-linecap:round; stroke-linejoin:round; stroke-width:4; stroke-opacity:1; fill:none" points="264.184,123.472 264.184,132.921 "/>
<polyline clip-path="url(#clip880)" style="stroke:#000000; stroke-linecap:round; stroke-linejoin:round; stroke-width:4; stroke-opacity:1; fill:none" points="349.036,123.472 349.036,132.921 "/>
<polyline clip-path="url(#clip880)" style="stroke:#000000; stroke-linecap:round; stroke-linejoin:round; stroke-width:4; stroke-opacity:1; fill:none" points="433.888,123.472 433.888,132.921 "/>
<polyline clip-path="url(#clip880)" style="stroke:#000000; stroke-linecap:round; stroke-linejoin:round; stroke-width:4; stroke-opacity:1; fill:none" points="518.74,123.472 518.74,132.921 "/>
<polyline clip-path="url(#clip880)" style="stroke:#000000; stroke-linecap:round; stroke-linejoin:round; stroke-width:4; stroke-opacity:1; fill:none" points="688.443,123.472 688.443,132.921 "/>
<polyline clip-path="url(#clip880)" style="stroke:#000000; stroke-linecap:round; stroke-linejoin:round; stroke-width:4; stroke-opacity:1; fill:none" points="773.295,123.472 773.295,132.921 "/>
<polyline clip-path="url(#clip880)" style="stroke:#000000; stroke-linecap:round; stroke-linejoin:round; stroke-width:4; stroke-opacity:1; fill:none" points="858.147,123.472 858.147,132.921 "/>
<polyline clip-path="url(#clip880)" style="stroke:#000000; stroke-linecap:round; stroke-linejoin:round; stroke-width:4; stroke-opacity:1; fill:none" points="942.998,123.472 942.998,132.921 "/>
<polyline clip-path="url(#clip880)" style="stroke:#000000; stroke-linecap:round; stroke-linejoin:round; stroke-width:4; stroke-opacity:1; fill:none" points="1112.7,123.472 1112.7,132.921 "/>
<polyline clip-path="url(#clip880)" style="stroke:#000000; stroke-linecap:round; stroke-linejoin:round; stroke-width:4; stroke-opacity:1; fill:none" points="1197.55,123.472 1197.55,132.921 "/>
<polyline clip-path="url(#clip880)" style="stroke:#000000; stroke-linecap:round; stroke-linejoin:round; stroke-width:4; stroke-opacity:1; fill:none" points="1282.41,123.472 1282.41,132.921 "/>
<polyline clip-path="url(#clip880)" style="stroke:#000000; stroke-linecap:round; stroke-linejoin:round; stroke-width:4; stroke-opacity:1; fill:none" points="1367.26,123.472 1367.26,132.921 "/>
<polyline clip-path="url(#clip880)" style="stroke:#000000; stroke-linecap:round; stroke-linejoin:round; stroke-width:4; stroke-opacity:1; fill:none" points="1536.96,123.472 1536.96,132.921 "/>
<polyline clip-path="url(#clip880)" style="stroke:#000000; stroke-linecap:round; stroke-linejoin:round; stroke-width:4; stroke-opacity:1; fill:none" points="1621.81,123.472 1621.81,132.921 "/>
<polyline clip-path="url(#clip880)" style="stroke:#000000; stroke-linecap:round; stroke-linejoin:round; stroke-width:4; stroke-opacity:1; fill:none" points="1706.66,123.472 1706.66,132.921 "/>
<polyline clip-path="url(#clip880)" style="stroke:#000000; stroke-linecap:round; stroke-linejoin:round; stroke-width:4; stroke-opacity:1; fill:none" points="1791.52,123.472 1791.52,132.921 "/>
<polyline clip-path="url(#clip880)" style="stroke:#000000; stroke-linecap:round; stroke-linejoin:round; stroke-width:4; stroke-opacity:1; fill:none" points="1961.22,123.472 1961.22,132.921 "/>
<polyline clip-path="url(#clip880)" style="stroke:#000000; stroke-linecap:round; stroke-linejoin:round; stroke-width:4; stroke-opacity:1; fill:none" points="2046.07,123.472 2046.07,132.921 "/>
<polyline clip-path="url(#clip880)" style="stroke:#000000; stroke-linecap:round; stroke-linejoin:round; stroke-width:4; stroke-opacity:1; fill:none" points="2130.92,123.472 2130.92,132.921 "/>
<polyline clip-path="url(#clip880)" style="stroke:#000000; stroke-linecap:round; stroke-linejoin:round; stroke-width:4; stroke-opacity:1; fill:none" points="2215.77,123.472 2215.77,132.921 "/>
<path clip-path="url(#clip880)" d="M578.325 1481.64 L585.964 1481.64 L585.964 1455.28 L577.654 1456.95 L577.654 1452.69 L585.918 1451.02 L590.594 1451.02 L590.594 1481.64 L598.233 1481.64 L598.233 1485.58 L578.325 1485.58 L578.325 1481.64 Z" fill="#000000" fill-rule="nonzero" fill-opacity="1" /><path clip-path="url(#clip880)" d="M617.677 1469.17 Q614.344 1469.17 612.422 1470.95 Q610.524 1472.73 610.524 1475.86 Q610.524 1478.98 612.422 1480.77 Q614.344 1482.55 617.677 1482.55 Q621.01 1482.55 622.932 1480.77 Q624.853 1478.96 624.853 1475.86 Q624.853 1472.73 622.932 1470.95 Q621.033 1469.17 617.677 1469.17 M613.001 1467.18 Q609.992 1466.44 608.302 1464.38 Q606.635 1462.32 606.635 1459.35 Q606.635 1455.21 609.575 1452.8 Q612.538 1450.39 617.677 1450.39 Q622.839 1450.39 625.779 1452.8 Q628.719 1455.21 628.719 1459.35 Q628.719 1462.32 627.029 1464.38 Q625.362 1466.44 622.376 1467.18 Q625.756 1467.96 627.631 1470.26 Q629.529 1472.55 629.529 1475.86 Q629.529 1480.88 626.45 1483.57 Q623.395 1486.25 617.677 1486.25 Q611.959 1486.25 608.881 1483.57 Q605.825 1480.88 605.825 1475.86 Q605.825 1472.55 607.723 1470.26 Q609.621 1467.96 613.001 1467.18 M611.288 1459.79 Q611.288 1462.48 612.955 1463.98 Q614.645 1465.49 617.677 1465.49 Q620.686 1465.49 622.376 1463.98 Q624.089 1462.48 624.089 1459.79 Q624.089 1457.11 622.376 1455.6 Q620.686 1454.1 617.677 1454.1 Q614.645 1454.1 612.955 1455.6 Q611.288 1457.11 611.288 1459.79 Z" fill="#000000" fill-rule="nonzero" fill-opacity="1" /><path clip-path="url(#clip880)" d="M1006.62 1481.64 L1022.94 1481.64 L1022.94 1485.58 L1001 1485.58 L1001 1481.64 Q1003.66 1478.89 1008.24 1474.26 Q1012.85 1469.61 1014.03 1468.27 Q1016.28 1465.74 1017.16 1464.01 Q1018.06 1462.25 1018.06 1460.56 Q1018.06 1457.8 1016.11 1456.07 Q1014.19 1454.33 1011.09 1454.33 Q1008.89 1454.33 1006.44 1455.09 Q1004.01 1455.86 1001.23 1457.41 L1001.23 1452.69 Q1004.05 1451.55 1006.51 1450.97 Q1008.96 1450.39 1011 1450.39 Q1016.37 1450.39 1019.56 1453.08 Q1022.76 1455.77 1022.76 1460.26 Q1022.76 1462.39 1021.95 1464.31 Q1021.16 1466.2 1019.05 1468.8 Q1018.48 1469.47 1015.37 1472.69 Q1012.27 1475.88 1006.62 1481.64 Z" fill="#000000" fill-rule="nonzero" fill-opacity="1" /><path clip-path="url(#clip880)" d="M1042.76 1454.1 Q1039.15 1454.1 1037.32 1457.66 Q1035.51 1461.2 1035.51 1468.33 Q1035.51 1475.44 1037.32 1479.01 Q1039.15 1482.55 1042.76 1482.55 Q1046.39 1482.55 1048.2 1479.01 Q1050.03 1475.44 1050.03 1468.33 Q1050.03 1461.2 1048.2 1457.66 Q1046.39 1454.1 1042.76 1454.1 M1042.76 1450.39 Q1048.57 1450.39 1051.62 1455 Q1054.7 1459.58 1054.7 1468.33 Q1054.7 1477.06 1051.62 1481.67 Q1048.57 1486.25 1042.76 1486.25 Q1036.95 1486.25 1033.87 1481.67 Q1030.81 1477.06 1030.81 1468.33 Q1030.81 1459.58 1033.87 1455 Q1036.95 1450.39 1042.76 1450.39 Z" fill="#000000" fill-rule="nonzero" fill-opacity="1" /><path clip-path="url(#clip880)" d="M1431.68 1481.64 L1448 1481.64 L1448 1485.58 L1426.06 1485.58 L1426.06 1481.64 Q1428.72 1478.89 1433.3 1474.26 Q1437.91 1469.61 1439.09 1468.27 Q1441.33 1465.74 1442.21 1464.01 Q1443.12 1462.25 1443.12 1460.56 Q1443.12 1457.8 1441.17 1456.07 Q1439.25 1454.33 1436.15 1454.33 Q1433.95 1454.33 1431.5 1455.09 Q1429.06 1455.86 1426.29 1457.41 L1426.29 1452.69 Q1429.11 1451.55 1431.56 1450.97 Q1434.02 1450.39 1436.06 1450.39 Q1441.43 1450.39 1444.62 1453.08 Q1447.81 1455.77 1447.81 1460.26 Q1447.81 1462.39 1447 1464.31 Q1446.22 1466.2 1444.11 1468.8 Q1443.53 1469.47 1440.43 1472.69 Q1437.33 1475.88 1431.68 1481.64 Z" fill="#000000" fill-rule="nonzero" fill-opacity="1" /><path clip-path="url(#clip880)" d="M1461.84 1481.64 L1478.16 1481.64 L1478.16 1485.58 L1456.22 1485.58 L1456.22 1481.64 Q1458.88 1478.89 1463.46 1474.26 Q1468.07 1469.61 1469.25 1468.27 Q1471.5 1465.74 1472.37 1464.01 Q1473.28 1462.25 1473.28 1460.56 Q1473.28 1457.8 1471.33 1456.07 Q1469.41 1454.33 1466.31 1454.33 Q1464.11 1454.33 1461.66 1455.09 Q1459.23 1455.86 1456.45 1457.41 L1456.45 1452.69 Q1459.27 1451.55 1461.73 1450.97 Q1464.18 1450.39 1466.22 1450.39 Q1471.59 1450.39 1474.78 1453.08 Q1477.98 1455.77 1477.98 1460.26 Q1477.98 1462.39 1477.17 1464.31 Q1476.38 1466.2 1474.27 1468.8 Q1473.69 1469.47 1470.59 1472.69 Q1467.49 1475.88 1461.84 1481.64 Z" fill="#000000" fill-rule="nonzero" fill-opacity="1" /><path clip-path="url(#clip880)" d="M1854.9 1481.64 L1871.22 1481.64 L1871.22 1485.58 L1849.27 1485.58 L1849.27 1481.64 Q1851.93 1478.89 1856.52 1474.26 Q1861.12 1469.61 1862.31 1468.27 Q1864.55 1465.74 1865.43 1464.01 Q1866.33 1462.25 1866.33 1460.56 Q1866.33 1457.8 1864.39 1456.07 Q1862.47 1454.33 1859.37 1454.33 Q1857.17 1454.33 1854.71 1455.09 Q1852.28 1455.86 1849.5 1457.41 L1849.5 1452.69 Q1852.33 1451.55 1854.78 1450.97 Q1857.24 1450.39 1859.27 1450.39 Q1864.64 1450.39 1867.84 1453.08 Q1871.03 1455.77 1871.03 1460.26 Q1871.03 1462.39 1870.22 1464.31 Q1869.43 1466.2 1867.33 1468.8 Q1866.75 1469.47 1863.65 1472.69 Q1860.55 1475.88 1854.9 1481.64 Z" fill="#000000" fill-rule="nonzero" fill-opacity="1" /><path clip-path="url(#clip880)" d="M1893.88 1455.09 L1882.07 1473.54 L1893.88 1473.54 L1893.88 1455.09 M1892.65 1451.02 L1898.53 1451.02 L1898.53 1473.54 L1903.46 1473.54 L1903.46 1477.43 L1898.53 1477.43 L1898.53 1485.58 L1893.88 1485.58 L1893.88 1477.43 L1878.28 1477.43 L1878.28 1472.92 L1892.65 1451.02 Z" fill="#000000" fill-rule="nonzero" fill-opacity="1" /><path clip-path="url(#clip880)" d="M2279.32 1481.64 L2295.64 1481.64 L2295.64 1485.58 L2273.69 1485.58 L2273.69 1481.64 Q2276.36 1478.89 2280.94 1474.26 Q2285.55 1469.61 2286.73 1468.27 Q2288.97 1465.74 2289.85 1464.01 Q2290.75 1462.25 2290.75 1460.56 Q2290.75 1457.8 2288.81 1456.07 Q2286.89 1454.33 2283.79 1454.33 Q2281.59 1454.33 2279.13 1455.09 Q2276.7 1455.86 2273.93 1457.41 L2273.93 1452.69 Q2276.75 1451.55 2279.2 1450.97 Q2281.66 1450.39 2283.69 1450.39 Q2289.06 1450.39 2292.26 1453.08 Q2295.45 1455.77 2295.45 1460.26 Q2295.45 1462.39 2294.64 1464.31 Q2293.86 1466.2 2291.75 1468.8 Q2291.17 1469.47 2288.07 1472.69 Q2284.97 1475.88 2279.32 1481.64 Z" fill="#000000" fill-rule="nonzero" fill-opacity="1" /><path clip-path="url(#clip880)" d="M2316.03 1466.44 Q2312.88 1466.44 2311.03 1468.59 Q2309.2 1470.74 2309.2 1474.49 Q2309.2 1478.22 2311.03 1480.39 Q2312.88 1482.55 2316.03 1482.55 Q2319.18 1482.55 2321.01 1480.39 Q2322.86 1478.22 2322.86 1474.49 Q2322.86 1470.74 2321.01 1468.59 Q2319.18 1466.44 2316.03 1466.44 M2325.31 1451.78 L2325.31 1456.04 Q2323.55 1455.21 2321.75 1454.77 Q2319.97 1454.33 2318.21 1454.33 Q2313.58 1454.33 2311.12 1457.45 Q2308.69 1460.58 2308.35 1466.9 Q2309.71 1464.89 2311.77 1463.82 Q2313.83 1462.73 2316.31 1462.73 Q2321.52 1462.73 2324.53 1465.9 Q2327.56 1469.05 2327.56 1474.49 Q2327.56 1479.82 2324.41 1483.03 Q2321.26 1486.25 2316.03 1486.25 Q2310.04 1486.25 2306.86 1481.67 Q2303.69 1477.06 2303.69 1468.33 Q2303.69 1460.14 2307.58 1455.28 Q2311.47 1450.39 2318.02 1450.39 Q2319.78 1450.39 2321.56 1450.74 Q2323.37 1451.09 2325.31 1451.78 Z" fill="#000000" fill-rule="nonzero" fill-opacity="1" /><path clip-path="url(#clip880)" d="M1630.62 1537.04 Q1625.79 1537.04 1623.18 1540.54 Q1620.44 1544.2 1620.44 1550.25 Q1620.44 1556.65 1623.14 1560.34 Q1625.88 1564 1630.62 1564 Q1635.3 1564 1638.04 1560.31 Q1640.78 1556.62 1640.78 1550.25 Q1640.78 1544.43 1638.04 1540.54 Q1635.53 1537.04 1630.62 1537.04 M1630.62 1532.4 L1650.07 1532.4 L1650.07 1538.25 L1643.51 1538.25 Q1646.98 1543.22 1646.98 1550.25 Q1646.98 1559 1642.62 1563.97 Q1638.26 1568.97 1630.62 1568.97 Q1622.95 1568.97 1618.62 1563.97 Q1614.26 1559 1614.26 1550.25 Q1614.26 1541.44 1618.62 1536.5 Q1622.22 1532.4 1630.62 1532.4 Z" fill="#000000" fill-rule="nonzero" fill-opacity="1" /><path clip-path="url(#clip880)" d="M1668.66 1553.66 Q1671.59 1554.23 1673.18 1555.98 Q1674.8 1557.7 1674.8 1560.31 Q1674.8 1564.26 1671.78 1566.39 Q1668.75 1568.52 1663.12 1568.52 Q1661.31 1568.52 1659.3 1568.17 Q1657.33 1567.85 1655.1 1567.22 L1655.1 1563.37 Q1656.76 1564.22 1658.63 1564.64 Q1660.54 1565.05 1662.68 1565.05 Q1666.14 1565.05 1668.05 1563.81 Q1669.96 1562.54 1669.96 1560.31 Q1669.96 1557.95 1668.18 1556.74 Q1666.43 1555.54 1662.99 1555.54 L1660.26 1555.54 L1660.26 1552.1 L1663.25 1552.1 Q1666.24 1552.1 1667.77 1551.11 Q1669.33 1550.09 1669.33 1548.18 Q1669.33 1546.34 1667.74 1545.38 Q1666.14 1544.4 1663.12 1544.4 Q1661.85 1544.4 1660.22 1544.68 Q1658.6 1544.97 1656.02 1545.7 L1656.02 1542.04 Q1658.35 1541.5 1660.38 1541.21 Q1662.42 1540.93 1664.17 1540.93 Q1668.75 1540.93 1671.43 1542.8 Q1674.13 1544.68 1674.13 1547.83 Q1674.13 1550.03 1672.7 1551.56 Q1671.27 1553.08 1668.66 1553.66 Z" fill="#000000" fill-rule="nonzero" fill-opacity="1" /><path clip-path="url(#clip880)" d="M1705.74 1538.44 L1746.54 1538.44 L1746.54 1543.79 L1705.74 1543.79 L1705.74 1538.44 M1705.74 1551.43 L1746.54 1551.43 L1746.54 1556.84 L1705.74 1556.84 L1705.74 1551.43 Z" fill="#000000" fill-rule="nonzero" fill-opacity="1" /><path clip-path="url(#clip880)" d="M1808.07 1539.24 Q1810.26 1535.29 1813.32 1533.41 Q1816.38 1531.54 1820.51 1531.54 Q1826.08 1531.54 1829.11 1535.45 Q1832.13 1539.33 1832.13 1546.53 L1832.13 1568.04 L1826.24 1568.04 L1826.24 1546.72 Q1826.24 1541.59 1824.43 1539.11 Q1822.61 1536.63 1818.89 1536.63 Q1814.34 1536.63 1811.7 1539.65 Q1809.05 1542.68 1809.05 1547.9 L1809.05 1568.04 L1803.17 1568.04 L1803.17 1546.72 Q1803.17 1541.56 1801.35 1539.11 Q1799.54 1536.63 1795.75 1536.63 Q1791.26 1536.63 1788.62 1539.68 Q1785.98 1542.71 1785.98 1547.9 L1785.98 1568.04 L1780.09 1568.04 L1780.09 1532.4 L1785.98 1532.4 L1785.98 1537.93 Q1787.98 1534.66 1790.79 1533.1 Q1793.59 1531.54 1797.44 1531.54 Q1801.32 1531.54 1804.03 1533.51 Q1806.76 1535.48 1808.07 1539.24 Z" fill="#000000" fill-rule="nonzero" fill-opacity="1" /><path clip-path="url(#clip880)" d="M1846.2 1543.15 L1859.69 1543.15 L1859.69 1546.78 L1840.66 1546.78 L1840.66 1543.28 Q1841.74 1542.29 1843.75 1540.51 Q1854.7 1530.8 1854.7 1527.81 Q1854.7 1525.71 1853.04 1524.44 Q1851.39 1523.13 1848.68 1523.13 Q1847.03 1523.13 1845.08 1523.71 Q1843.14 1524.25 1840.85 1525.36 L1840.85 1521.45 Q1843.3 1520.56 1845.4 1520.11 Q1847.54 1519.66 1849.35 1519.66 Q1853.96 1519.66 1856.73 1521.77 Q1859.5 1523.87 1859.5 1527.3 Q1859.5 1531.73 1848.97 1540.77 Q1847.19 1542.29 1846.2 1543.15 Z" fill="#000000" fill-rule="nonzero" fill-opacity="1" /><path clip-path="url(#clip880)" d="M1884.01 1518.58 Q1879.75 1525.9 1877.68 1533.06 Q1875.61 1540.23 1875.61 1547.58 Q1875.61 1554.93 1877.68 1562.16 Q1879.78 1569.35 1884.01 1576.64 L1878.92 1576.64 Q1874.14 1569.16 1871.76 1561.93 Q1869.4 1554.71 1869.4 1547.58 Q1869.4 1540.48 1871.76 1533.29 Q1874.11 1526.09 1878.92 1518.58 L1884.01 1518.58 Z" fill="#000000" fill-rule="nonzero" fill-opacity="1" /><path clip-path="url(#clip880)" d="M1901.04 1562.7 L1901.04 1581.6 L1895.15 1581.6 L1895.15 1532.4 L1901.04 1532.4 L1901.04 1537.81 Q1902.89 1534.62 1905.69 1533.1 Q1908.52 1531.54 1912.43 1531.54 Q1918.93 1531.54 1922.97 1536.69 Q1927.04 1541.85 1927.04 1550.25 Q1927.04 1558.65 1922.97 1563.81 Q1918.93 1568.97 1912.43 1568.97 Q1908.52 1568.97 1905.69 1567.44 Q1902.89 1565.88 1901.04 1562.7 M1920.96 1550.25 Q1920.96 1543.79 1918.29 1540.13 Q1915.65 1536.44 1911 1536.44 Q1906.35 1536.44 1903.68 1540.13 Q1901.04 1543.79 1901.04 1550.25 Q1901.04 1556.71 1903.68 1560.4 Q1906.35 1564.07 1911 1564.07 Q1915.65 1564.07 1918.29 1560.4 Q1920.96 1556.71 1920.96 1550.25 Z" fill="#000000" fill-rule="nonzero" fill-opacity="1" /><path clip-path="url(#clip880)" d="M1957.73 1520.52 L1964.16 1520.52 L1964.16 1540.61 L1985.48 1520.52 L1993.76 1520.52 L1970.17 1542.68 L1995.44 1568.04 L1986.98 1568.04 L1964.16 1545.16 L1964.16 1568.04 L1957.73 1568.04 L1957.73 1520.52 Z" fill="#000000" fill-rule="nonzero" fill-opacity="1" /><path clip-path="url(#clip880)" d="M1999.29 1518.58 L2004.39 1518.58 Q2009.16 1526.09 2011.52 1533.29 Q2013.9 1540.48 2013.9 1547.58 Q2013.9 1554.71 2011.52 1561.93 Q2009.16 1569.16 2004.39 1576.64 L1999.29 1576.64 Q2003.53 1569.35 2005.6 1562.16 Q2007.7 1554.93 2007.7 1547.58 Q2007.7 1540.23 2005.6 1533.06 Q2003.53 1525.9 1999.29 1518.58 Z" fill="#000000" fill-rule="nonzero" fill-opacity="1" /><path clip-path="url(#clip880)" d="M2045.83 1518.52 L2059.32 1518.52 L2059.32 1523.07 L2051.68 1523.07 L2051.68 1572.09 L2059.32 1572.09 L2059.32 1576.64 L2045.83 1576.64 L2045.83 1518.52 Z" fill="#000000" fill-rule="nonzero" fill-opacity="1" /><path clip-path="url(#clip880)" d="M2104.46 1561.26 L2104.46 1548.5 L2093.95 1548.5 L2093.95 1543.22 L2110.82 1543.22 L2110.82 1563.62 Q2107.1 1566.26 2102.61 1567.63 Q2098.12 1568.97 2093.03 1568.97 Q2081.89 1568.97 2075.59 1562.47 Q2069.32 1555.95 2069.32 1544.33 Q2069.32 1532.68 2075.59 1526.19 Q2081.89 1519.66 2093.03 1519.66 Q2097.68 1519.66 2101.85 1520.81 Q2106.05 1521.96 2109.58 1524.18 L2109.58 1531.03 Q2106.01 1528 2102 1526.48 Q2097.99 1524.95 2093.57 1524.95 Q2084.85 1524.95 2080.46 1529.82 Q2076.1 1534.69 2076.1 1544.33 Q2076.1 1553.94 2080.46 1558.81 Q2084.85 1563.68 2093.57 1563.68 Q2096.98 1563.68 2099.65 1563.11 Q2102.32 1562.51 2104.46 1561.26 Z" fill="#000000" fill-rule="nonzero" fill-opacity="1" /><path clip-path="url(#clip880)" d="M2152.8 1548.76 L2152.8 1551.62 L2125.88 1551.62 Q2126.26 1557.67 2129.5 1560.85 Q2132.78 1564 2138.61 1564 Q2141.98 1564 2145.13 1563.17 Q2148.32 1562.35 2151.43 1560.69 L2151.43 1566.23 Q2148.28 1567.57 2144.97 1568.27 Q2141.66 1568.97 2138.26 1568.97 Q2129.73 1568.97 2124.73 1564 Q2119.76 1559.04 2119.76 1550.57 Q2119.76 1541.82 2124.48 1536.69 Q2129.22 1531.54 2137.24 1531.54 Q2144.43 1531.54 2148.6 1536.18 Q2152.8 1540.8 2152.8 1548.76 M2146.95 1547.04 Q2146.88 1542.23 2144.24 1539.37 Q2141.63 1536.5 2137.3 1536.5 Q2132.4 1536.5 2129.44 1539.27 Q2126.51 1542.04 2126.07 1547.07 L2146.95 1547.04 Z" fill="#000000" fill-rule="nonzero" fill-opacity="1" /><path clip-path="url(#clip880)" d="M2174.92 1568.04 L2156.78 1520.52 L2163.5 1520.52 L2178.55 1560.53 L2193.64 1520.52 L2200.32 1520.52 L2182.21 1568.04 L2174.92 1568.04 Z" fill="#000000" fill-rule="nonzero" fill-opacity="1" /><path clip-path="url(#clip880)" d="M2209.39 1543.15 L2222.89 1543.15 L2222.89 1546.78 L2203.86 1546.78 L2203.86 1543.28 Q2204.94 1542.29 2206.94 1540.51 Q2217.89 1530.8 2217.89 1527.81 Q2217.89 1525.71 2216.24 1524.44 Q2214.58 1523.13 2211.88 1523.13 Q2210.22 1523.13 2208.28 1523.71 Q2206.34 1524.25 2204.05 1525.36 L2204.05 1521.45 Q2206.5 1520.56 2208.6 1520.11 Q2210.73 1519.66 2212.55 1519.66 Q2217.16 1519.66 2219.93 1521.77 Q2222.7 1523.87 2222.7 1527.3 Q2222.7 1531.73 2212.16 1540.77 Q2210.38 1542.29 2209.39 1543.15 Z" fill="#000000" fill-rule="nonzero" fill-opacity="1" /><path clip-path="url(#clip880)" d="M2246.82 1518.52 L2246.82 1576.64 L2233.33 1576.64 L2233.33 1572.09 L2240.94 1572.09 L2240.94 1523.07 L2233.33 1523.07 L2233.33 1518.52 L2246.82 1518.52 Z" fill="#000000" fill-rule="nonzero" fill-opacity="1" /><polyline clip-path="url(#clip880)" style="stroke:#000000; stroke-linecap:round; stroke-linejoin:round; stroke-width:4; stroke-opacity:1; fill:none" points="234.125,1423.18 234.125,123.472 "/>
<polyline clip-path="url(#clip880)" style="stroke:#000000; stroke-linecap:round; stroke-linejoin:round; stroke-width:4; stroke-opacity:1; fill:none" points="2352.76,1423.18 2352.76,123.472 "/>
<polyline clip-path="url(#clip880)" style="stroke:#000000; stroke-linecap:round; stroke-linejoin:round; stroke-width:4; stroke-opacity:1; fill:none" points="234.125,1423.18 253.023,1423.18 "/>
<polyline clip-path="url(#clip880)" style="stroke:#000000; stroke-linecap:round; stroke-linejoin:round; stroke-width:4; stroke-opacity:1; fill:none" points="234.125,1111.42 253.023,1111.42 "/>
<polyline clip-path="url(#clip880)" style="stroke:#000000; stroke-linecap:round; stroke-linejoin:round; stroke-width:4; stroke-opacity:1; fill:none" points="234.125,799.659 253.023,799.659 "/>
<polyline clip-path="url(#clip880)" style="stroke:#000000; stroke-linecap:round; stroke-linejoin:round; stroke-width:4; stroke-opacity:1; fill:none" points="234.125,487.899 253.023,487.899 "/>
<polyline clip-path="url(#clip880)" style="stroke:#000000; stroke-linecap:round; stroke-linejoin:round; stroke-width:4; stroke-opacity:1; fill:none" points="234.125,176.139 253.023,176.139 "/>
<polyline clip-path="url(#clip880)" style="stroke:#000000; stroke-linecap:round; stroke-linejoin:round; stroke-width:4; stroke-opacity:1; fill:none" points="2352.76,1423.18 2333.86,1423.18 "/>
<polyline clip-path="url(#clip880)" style="stroke:#000000; stroke-linecap:round; stroke-linejoin:round; stroke-width:4; stroke-opacity:1; fill:none" points="2352.76,1111.42 2333.86,1111.42 "/>
<polyline clip-path="url(#clip880)" style="stroke:#000000; stroke-linecap:round; stroke-linejoin:round; stroke-width:4; stroke-opacity:1; fill:none" points="2352.76,799.659 2333.86,799.659 "/>
<polyline clip-path="url(#clip880)" style="stroke:#000000; stroke-linecap:round; stroke-linejoin:round; stroke-width:4; stroke-opacity:1; fill:none" points="2352.76,487.899 2333.86,487.899 "/>
<polyline clip-path="url(#clip880)" style="stroke:#000000; stroke-linecap:round; stroke-linejoin:round; stroke-width:4; stroke-opacity:1; fill:none" points="2352.76,176.139 2333.86,176.139 "/>
<polyline clip-path="url(#clip880)" style="stroke:#000000; stroke-linecap:round; stroke-linejoin:round; stroke-width:4; stroke-opacity:1; fill:none" points="234.125,1360.83 243.574,1360.83 "/>
<polyline clip-path="url(#clip880)" style="stroke:#000000; stroke-linecap:round; stroke-linejoin:round; stroke-width:4; stroke-opacity:1; fill:none" points="234.125,1298.48 243.574,1298.48 "/>
<polyline clip-path="url(#clip880)" style="stroke:#000000; stroke-linecap:round; stroke-linejoin:round; stroke-width:4; stroke-opacity:1; fill:none" points="234.125,1236.12 243.574,1236.12 "/>
<polyline clip-path="url(#clip880)" style="stroke:#000000; stroke-linecap:round; stroke-linejoin:round; stroke-width:4; stroke-opacity:1; fill:none" points="234.125,1173.77 243.574,1173.77 "/>
<polyline clip-path="url(#clip880)" style="stroke:#000000; stroke-linecap:round; stroke-linejoin:round; stroke-width:4; stroke-opacity:1; fill:none" points="234.125,1049.07 243.574,1049.07 "/>
<polyline clip-path="url(#clip880)" style="stroke:#000000; stroke-linecap:round; stroke-linejoin:round; stroke-width:4; stroke-opacity:1; fill:none" points="234.125,986.715 243.574,986.715 "/>
<polyline clip-path="url(#clip880)" style="stroke:#000000; stroke-linecap:round; stroke-linejoin:round; stroke-width:4; stroke-opacity:1; fill:none" points="234.125,924.363 243.574,924.363 "/>
<polyline clip-path="url(#clip880)" style="stroke:#000000; stroke-linecap:round; stroke-linejoin:round; stroke-width:4; stroke-opacity:1; fill:none" points="234.125,862.011 243.574,862.011 "/>
<polyline clip-path="url(#clip880)" style="stroke:#000000; stroke-linecap:round; stroke-linejoin:round; stroke-width:4; stroke-opacity:1; fill:none" points="234.125,737.307 243.574,737.307 "/>
<polyline clip-path="url(#clip880)" style="stroke:#000000; stroke-linecap:round; stroke-linejoin:round; stroke-width:4; stroke-opacity:1; fill:none" points="234.125,674.955 243.574,674.955 "/>
<polyline clip-path="url(#clip880)" style="stroke:#000000; stroke-linecap:round; stroke-linejoin:round; stroke-width:4; stroke-opacity:1; fill:none" points="234.125,612.603 243.574,612.603 "/>
<polyline clip-path="url(#clip880)" style="stroke:#000000; stroke-linecap:round; stroke-linejoin:round; stroke-width:4; stroke-opacity:1; fill:none" points="234.125,550.251 243.574,550.251 "/>
<polyline clip-path="url(#clip880)" style="stroke:#000000; stroke-linecap:round; stroke-linejoin:round; stroke-width:4; stroke-opacity:1; fill:none" points="234.125,425.547 243.574,425.547 "/>
<polyline clip-path="url(#clip880)" style="stroke:#000000; stroke-linecap:round; stroke-linejoin:round; stroke-width:4; stroke-opacity:1; fill:none" points="234.125,363.195 243.574,363.195 "/>
<polyline clip-path="url(#clip880)" style="stroke:#000000; stroke-linecap:round; stroke-linejoin:round; stroke-width:4; stroke-opacity:1; fill:none" points="234.125,300.843 243.574,300.843 "/>
<polyline clip-path="url(#clip880)" style="stroke:#000000; stroke-linecap:round; stroke-linejoin:round; stroke-width:4; stroke-opacity:1; fill:none" points="234.125,238.491 243.574,238.491 "/>
<polyline clip-path="url(#clip880)" style="stroke:#000000; stroke-linecap:round; stroke-linejoin:round; stroke-width:4; stroke-opacity:1; fill:none" points="2352.76,1360.83 2343.31,1360.83 "/>
<polyline clip-path="url(#clip880)" style="stroke:#000000; stroke-linecap:round; stroke-linejoin:round; stroke-width:4; stroke-opacity:1; fill:none" points="2352.76,1298.48 2343.31,1298.48 "/>
<polyline clip-path="url(#clip880)" style="stroke:#000000; stroke-linecap:round; stroke-linejoin:round; stroke-width:4; stroke-opacity:1; fill:none" points="2352.76,1236.12 2343.31,1236.12 "/>
<polyline clip-path="url(#clip880)" style="stroke:#000000; stroke-linecap:round; stroke-linejoin:round; stroke-width:4; stroke-opacity:1; fill:none" points="2352.76,1173.77 2343.31,1173.77 "/>
<polyline clip-path="url(#clip880)" style="stroke:#000000; stroke-linecap:round; stroke-linejoin:round; stroke-width:4; stroke-opacity:1; fill:none" points="2352.76,1049.07 2343.31,1049.07 "/>
<polyline clip-path="url(#clip880)" style="stroke:#000000; stroke-linecap:round; stroke-linejoin:round; stroke-width:4; stroke-opacity:1; fill:none" points="2352.76,986.715 2343.31,986.715 "/>
<polyline clip-path="url(#clip880)" style="stroke:#000000; stroke-linecap:round; stroke-linejoin:round; stroke-width:4; stroke-opacity:1; fill:none" points="2352.76,924.363 2343.31,924.363 "/>
<polyline clip-path="url(#clip880)" style="stroke:#000000; stroke-linecap:round; stroke-linejoin:round; stroke-width:4; stroke-opacity:1; fill:none" points="2352.76,862.011 2343.31,862.011 "/>
<polyline clip-path="url(#clip880)" style="stroke:#000000; stroke-linecap:round; stroke-linejoin:round; stroke-width:4; stroke-opacity:1; fill:none" points="2352.76,737.307 2343.31,737.307 "/>
<polyline clip-path="url(#clip880)" style="stroke:#000000; stroke-linecap:round; stroke-linejoin:round; stroke-width:4; stroke-opacity:1; fill:none" points="2352.76,674.955 2343.31,674.955 "/>
<polyline clip-path="url(#clip880)" style="stroke:#000000; stroke-linecap:round; stroke-linejoin:round; stroke-width:4; stroke-opacity:1; fill:none" points="2352.76,612.603 2343.31,612.603 "/>
<polyline clip-path="url(#clip880)" style="stroke:#000000; stroke-linecap:round; stroke-linejoin:round; stroke-width:4; stroke-opacity:1; fill:none" points="2352.76,550.251 2343.31,550.251 "/>
<polyline clip-path="url(#clip880)" style="stroke:#000000; stroke-linecap:round; stroke-linejoin:round; stroke-width:4; stroke-opacity:1; fill:none" points="2352.76,425.547 2343.31,425.547 "/>
<polyline clip-path="url(#clip880)" style="stroke:#000000; stroke-linecap:round; stroke-linejoin:round; stroke-width:4; stroke-opacity:1; fill:none" points="2352.76,363.195 2343.31,363.195 "/>
<polyline clip-path="url(#clip880)" style="stroke:#000000; stroke-linecap:round; stroke-linejoin:round; stroke-width:4; stroke-opacity:1; fill:none" points="2352.76,300.843 2343.31,300.843 "/>
<polyline clip-path="url(#clip880)" style="stroke:#000000; stroke-linecap:round; stroke-linejoin:round; stroke-width:4; stroke-opacity:1; fill:none" points="2352.76,238.491 2343.31,238.491 "/>
<path clip-path="url(#clip880)" d="M186.181 1408.98 Q182.57 1408.98 180.741 1412.54 Q178.936 1416.08 178.936 1423.21 Q178.936 1430.32 180.741 1433.89 Q182.57 1437.43 186.181 1437.43 Q189.815 1437.43 191.621 1433.89 Q193.45 1430.32 193.45 1423.21 Q193.45 1416.08 191.621 1412.54 Q189.815 1408.98 186.181 1408.98 M186.181 1405.27 Q191.991 1405.27 195.047 1409.88 Q198.125 1414.46 198.125 1423.21 Q198.125 1431.94 195.047 1436.55 Q191.991 1441.13 186.181 1441.13 Q180.371 1441.13 177.292 1436.55 Q174.237 1431.94 174.237 1423.21 Q174.237 1414.46 177.292 1409.88 Q180.371 1405.27 186.181 1405.27 Z" fill="#000000" fill-rule="nonzero" fill-opacity="1" /><path clip-path="url(#clip880)" d="M146.066 1094.14 L164.422 1094.14 L164.422 1098.07 L150.348 1098.07 L150.348 1106.55 Q151.366 1106.2 152.385 1106.04 Q153.403 1105.85 154.422 1105.85 Q160.209 1105.85 163.589 1109.02 Q166.968 1112.2 166.968 1117.61 Q166.968 1123.19 163.496 1126.29 Q160.024 1129.37 153.704 1129.37 Q151.528 1129.37 149.26 1129 Q147.015 1128.63 144.607 1127.89 L144.607 1123.19 Q146.691 1124.32 148.913 1124.88 Q151.135 1125.44 153.612 1125.44 Q157.616 1125.44 159.954 1123.33 Q162.292 1121.22 162.292 1117.61 Q162.292 1114 159.954 1111.89 Q157.616 1109.79 153.612 1109.79 Q151.737 1109.79 149.862 1110.2 Q148.01 1110.62 146.066 1111.5 L146.066 1094.14 Z" fill="#000000" fill-rule="nonzero" fill-opacity="1" /><path clip-path="url(#clip880)" d="M186.181 1097.22 Q182.57 1097.22 180.741 1100.78 Q178.936 1104.32 178.936 1111.45 Q178.936 1118.56 180.741 1122.13 Q182.57 1125.67 186.181 1125.67 Q189.815 1125.67 191.621 1122.13 Q193.45 1118.56 193.45 1111.45 Q193.45 1104.32 191.621 1100.78 Q189.815 1097.22 186.181 1097.22 M186.181 1093.51 Q191.991 1093.51 195.047 1098.12 Q198.125 1102.7 198.125 1111.45 Q198.125 1120.18 195.047 1124.79 Q191.991 1129.37 186.181 1129.37 Q180.371 1129.37 177.292 1124.79 Q174.237 1120.18 174.237 1111.45 Q174.237 1102.7 177.292 1098.12 Q180.371 1093.51 186.181 1093.51 Z" fill="#000000" fill-rule="nonzero" fill-opacity="1" /><path clip-path="url(#clip880)" d="M116.668 813.004 L124.306 813.004 L124.306 786.638 L115.996 788.305 L115.996 784.046 L124.26 782.379 L128.936 782.379 L128.936 813.004 L136.575 813.004 L136.575 816.939 L116.668 816.939 L116.668 813.004 Z" fill="#000000" fill-rule="nonzero" fill-opacity="1" /><path clip-path="url(#clip880)" d="M156.019 785.458 Q152.408 785.458 150.579 789.023 Q148.774 792.564 148.774 799.694 Q148.774 806.8 150.579 810.365 Q152.408 813.907 156.019 813.907 Q159.653 813.907 161.459 810.365 Q163.288 806.8 163.288 799.694 Q163.288 792.564 161.459 789.023 Q159.653 785.458 156.019 785.458 M156.019 781.754 Q161.829 781.754 164.885 786.361 Q167.964 790.944 167.964 799.694 Q167.964 808.421 164.885 813.027 Q161.829 817.611 156.019 817.611 Q150.209 817.611 147.13 813.027 Q144.075 808.421 144.075 799.694 Q144.075 790.944 147.13 786.361 Q150.209 781.754 156.019 781.754 Z" fill="#000000" fill-rule="nonzero" fill-opacity="1" /><path clip-path="url(#clip880)" d="M186.181 785.458 Q182.57 785.458 180.741 789.023 Q178.936 792.564 178.936 799.694 Q178.936 806.8 180.741 810.365 Q182.57 813.907 186.181 813.907 Q189.815 813.907 191.621 810.365 Q193.45 806.8 193.45 799.694 Q193.45 792.564 191.621 789.023 Q189.815 785.458 186.181 785.458 M186.181 781.754 Q191.991 781.754 195.047 786.361 Q198.125 790.944 198.125 799.694 Q198.125 808.421 195.047 813.027 Q191.991 817.611 186.181 817.611 Q180.371 817.611 177.292 813.027 Q174.237 808.421 174.237 799.694 Q174.237 790.944 177.292 786.361 Q180.371 781.754 186.181 781.754 Z" fill="#000000" fill-rule="nonzero" fill-opacity="1" /><path clip-path="url(#clip880)" d="M116.668 501.244 L124.306 501.244 L124.306 474.878 L115.996 476.545 L115.996 472.286 L124.26 470.619 L128.936 470.619 L128.936 501.244 L136.575 501.244 L136.575 505.179 L116.668 505.179 L116.668 501.244 Z" fill="#000000" fill-rule="nonzero" fill-opacity="1" /><path clip-path="url(#clip880)" d="M146.066 470.619 L164.422 470.619 L164.422 474.554 L150.348 474.554 L150.348 483.026 Q151.366 482.679 152.385 482.517 Q153.403 482.332 154.422 482.332 Q160.209 482.332 163.589 485.503 Q166.968 488.674 166.968 494.091 Q166.968 499.67 163.496 502.772 Q160.024 505.85 153.704 505.85 Q151.528 505.85 149.26 505.48 Q147.015 505.109 144.607 504.369 L144.607 499.67 Q146.691 500.804 148.913 501.36 Q151.135 501.915 153.612 501.915 Q157.616 501.915 159.954 499.809 Q162.292 497.702 162.292 494.091 Q162.292 490.48 159.954 488.373 Q157.616 486.267 153.612 486.267 Q151.737 486.267 149.862 486.684 Q148.01 487.1 146.066 487.98 L146.066 470.619 Z" fill="#000000" fill-rule="nonzero" fill-opacity="1" /><path clip-path="url(#clip880)" d="M186.181 473.698 Q182.57 473.698 180.741 477.262 Q178.936 480.804 178.936 487.934 Q178.936 495.04 180.741 498.605 Q182.57 502.147 186.181 502.147 Q189.815 502.147 191.621 498.605 Q193.45 495.04 193.45 487.934 Q193.45 480.804 191.621 477.262 Q189.815 473.698 186.181 473.698 M186.181 469.994 Q191.991 469.994 195.047 474.6 Q198.125 479.184 198.125 487.934 Q198.125 496.66 195.047 501.267 Q191.991 505.85 186.181 505.85 Q180.371 505.85 177.292 501.267 Q174.237 496.66 174.237 487.934 Q174.237 479.184 177.292 474.6 Q180.371 469.994 186.181 469.994 Z" fill="#000000" fill-rule="nonzero" fill-opacity="1" /><path clip-path="url(#clip880)" d="M119.885 189.483 L136.204 189.483 L136.204 193.419 L114.26 193.419 L114.26 189.483 Q116.922 186.729 121.505 182.099 Q126.112 177.447 127.292 176.104 Q129.538 173.581 130.417 171.845 Q131.32 170.085 131.32 168.396 Q131.32 165.641 129.376 163.905 Q127.455 162.169 124.353 162.169 Q122.154 162.169 119.7 162.933 Q117.269 163.697 114.492 165.247 L114.492 160.525 Q117.316 159.391 119.769 158.812 Q122.223 158.234 124.26 158.234 Q129.63 158.234 132.825 160.919 Q136.019 163.604 136.019 168.095 Q136.019 170.224 135.209 172.146 Q134.422 174.044 132.316 176.636 Q131.737 177.308 128.635 180.525 Q125.533 183.72 119.885 189.483 Z" fill="#000000" fill-rule="nonzero" fill-opacity="1" /><path clip-path="url(#clip880)" d="M156.019 161.937 Q152.408 161.937 150.579 165.502 Q148.774 169.044 148.774 176.173 Q148.774 183.28 150.579 186.845 Q152.408 190.386 156.019 190.386 Q159.653 190.386 161.459 186.845 Q163.288 183.28 163.288 176.173 Q163.288 169.044 161.459 165.502 Q159.653 161.937 156.019 161.937 M156.019 158.234 Q161.829 158.234 164.885 162.84 Q167.964 167.423 167.964 176.173 Q167.964 184.9 164.885 189.507 Q161.829 194.09 156.019 194.09 Q150.209 194.09 147.13 189.507 Q144.075 184.9 144.075 176.173 Q144.075 167.423 147.13 162.84 Q150.209 158.234 156.019 158.234 Z" fill="#000000" fill-rule="nonzero" fill-opacity="1" /><path clip-path="url(#clip880)" d="M186.181 161.937 Q182.57 161.937 180.741 165.502 Q178.936 169.044 178.936 176.173 Q178.936 183.28 180.741 186.845 Q182.57 190.386 186.181 190.386 Q189.815 190.386 191.621 186.845 Q193.45 183.28 193.45 176.173 Q193.45 169.044 191.621 165.502 Q189.815 161.937 186.181 161.937 M186.181 158.234 Q191.991 158.234 195.047 162.84 Q198.125 167.423 198.125 176.173 Q198.125 184.9 195.047 189.507 Q191.991 194.09 186.181 194.09 Q180.371 194.09 177.292 189.507 Q174.237 184.9 174.237 176.173 Q174.237 167.423 177.292 162.84 Q180.371 158.234 186.181 158.234 Z" fill="#000000" fill-rule="nonzero" fill-opacity="1" /><path clip-path="url(#clip880)" d="M16.4842 825.919 L16.4842 819.49 L64.0042 819.49 L64.0042 825.919 L16.4842 825.919 Z" fill="#000000" fill-rule="nonzero" fill-opacity="1" /><path clip-path="url(#clip880)" d="M42.4881 777.317 L64.0042 777.317 L64.0042 783.174 L42.679 783.174 Q37.6183 783.174 35.1038 785.147 Q32.5894 787.12 32.5894 791.067 Q32.5894 795.81 35.6131 798.547 Q38.6368 801.284 43.8567 801.284 L64.0042 801.284 L64.0042 807.172 L28.3562 807.172 L28.3562 801.284 L33.8944 801.284 Q30.6797 799.183 29.0883 796.351 Q27.4968 793.486 27.4968 789.762 Q27.4968 783.619 31.3163 780.468 Q35.1038 777.317 42.4881 777.317 Z" fill="#000000" fill-rule="nonzero" fill-opacity="1" /><path clip-path="url(#clip880)" d="M18.2347 759.843 L28.3562 759.843 L28.3562 747.78 L32.9077 747.78 L32.9077 759.843 L52.2594 759.843 Q56.6199 759.843 57.8613 758.666 Q59.1026 757.456 59.1026 753.796 L59.1026 747.78 L64.0042 747.78 L64.0042 753.796 Q64.0042 760.575 61.4897 763.154 Q58.9434 765.732 52.2594 765.732 L32.9077 765.732 L32.9077 770.028 L28.3562 770.028 L28.3562 765.732 L18.2347 765.732 L18.2347 759.843 Z" fill="#000000" fill-rule="nonzero" fill-opacity="1" /><path clip-path="url(#clip880)" d="M44.7161 709.586 L47.5806 709.586 L47.5806 736.513 Q53.6281 736.131 56.8109 732.885 Q59.9619 729.606 59.9619 723.782 Q59.9619 720.408 59.1344 717.257 Q58.3069 714.074 56.6518 710.955 L62.1899 710.955 Q63.5267 714.106 64.227 717.416 Q64.9272 720.726 64.9272 724.132 Q64.9272 732.662 59.9619 737.659 Q54.9967 742.624 46.5303 742.624 Q37.7774 742.624 32.6531 737.913 Q27.4968 733.171 27.4968 725.15 Q27.4968 717.957 32.1438 713.787 Q36.7589 709.586 44.7161 709.586 M42.9973 715.443 Q38.1912 715.506 35.3266 718.148 Q32.4621 720.758 32.4621 725.087 Q32.4621 729.988 35.2312 732.948 Q38.0002 735.876 43.0292 736.322 L42.9973 715.443 Z" fill="#000000" fill-rule="nonzero" fill-opacity="1" /><path clip-path="url(#clip880)" d="M45.7664 676.516 Q39.4007 676.516 35.8996 679.158 Q32.3984 681.768 32.3984 686.51 Q32.3984 691.221 35.8996 693.863 Q39.4007 696.473 45.7664 696.473 Q52.1003 696.473 55.6014 693.863 Q59.1026 691.221 59.1026 686.51 Q59.1026 681.768 55.6014 679.158 Q52.1003 676.516 45.7664 676.516 M59.58 670.66 Q68.683 670.66 73.1071 674.702 Q77.5631 678.744 77.5631 687.083 Q77.5631 690.171 77.0857 692.908 Q76.6401 695.645 75.6852 698.223 L69.9879 698.223 Q71.3884 695.645 72.0568 693.131 Q72.7252 690.616 72.7252 688.006 Q72.7252 682.245 69.7015 679.381 Q66.7096 676.516 60.6303 676.516 L57.7339 676.516 Q60.885 678.33 62.4446 681.163 Q64.0042 683.996 64.0042 687.943 Q64.0042 694.499 59.0071 698.51 Q54.01 702.52 45.7664 702.52 Q37.491 702.52 32.4939 698.51 Q27.4968 694.499 27.4968 687.943 Q27.4968 683.996 29.0564 681.163 Q30.616 678.33 33.7671 676.516 L28.3562 676.516 L28.3562 670.66 L59.58 670.66 Z" fill="#000000" fill-rule="nonzero" fill-opacity="1" /><path clip-path="url(#clip880)" d="M33.8307 637.94 Q33.2578 638.927 33.0032 640.104 Q32.7167 641.25 32.7167 642.651 Q32.7167 647.616 35.9632 650.29 Q39.1779 652.931 45.2253 652.931 L64.0042 652.931 L64.0042 658.82 L28.3562 658.82 L28.3562 652.931 L33.8944 652.931 Q30.6479 651.085 29.0883 648.125 Q27.4968 645.165 27.4968 640.932 Q27.4968 640.327 27.5923 639.595 Q27.656 638.863 27.8151 637.972 L33.8307 637.94 Z" fill="#000000" fill-rule="nonzero" fill-opacity="1" /><path clip-path="url(#clip880)" d="M46.0847 615.596 Q46.0847 622.694 47.7079 625.431 Q49.3312 628.169 53.2461 628.169 Q56.3653 628.169 58.2114 626.132 Q60.0256 624.063 60.0256 620.53 Q60.0256 615.66 56.5881 612.732 Q53.1188 609.772 47.3897 609.772 L46.0847 609.772 L46.0847 615.596 M43.6657 603.915 L64.0042 603.915 L64.0042 609.772 L58.5933 609.772 Q61.8398 611.777 63.3994 614.769 Q64.9272 617.761 64.9272 622.089 Q64.9272 627.564 61.8716 630.81 Q58.7843 634.025 53.6281 634.025 Q47.6125 634.025 44.5569 630.015 Q41.5014 625.973 41.5014 617.984 L41.5014 609.772 L40.9285 609.772 Q36.8862 609.772 34.6901 612.445 Q32.4621 615.087 32.4621 619.893 Q32.4621 622.949 33.1941 625.845 Q33.9262 628.742 35.3903 631.415 L29.9795 631.415 Q28.7381 628.201 28.1334 625.177 Q27.4968 622.153 27.4968 619.289 Q27.4968 611.554 31.5072 607.735 Q35.5176 603.915 43.6657 603.915 Z" fill="#000000" fill-rule="nonzero" fill-opacity="1" /><path clip-path="url(#clip880)" d="M18.2347 586.06 L28.3562 586.06 L28.3562 573.997 L32.9077 573.997 L32.9077 586.06 L52.2594 586.06 Q56.6199 586.06 57.8613 584.882 Q59.1026 583.672 59.1026 580.012 L59.1026 573.997 L64.0042 573.997 L64.0042 580.012 Q64.0042 586.792 61.4897 589.37 Q58.9434 591.948 52.2594 591.948 L32.9077 591.948 L32.9077 596.245 L28.3562 596.245 L28.3562 591.948 L18.2347 591.948 L18.2347 586.06 Z" fill="#000000" fill-rule="nonzero" fill-opacity="1" /><path clip-path="url(#clip880)" d="M44.7161 535.802 L47.5806 535.802 L47.5806 562.729 Q53.6281 562.347 56.8109 559.101 Q59.9619 555.822 59.9619 549.998 Q59.9619 546.624 59.1344 543.473 Q58.3069 540.29 56.6518 537.171 L62.1899 537.171 Q63.5267 540.322 64.227 543.632 Q64.9272 546.942 64.9272 550.348 Q64.9272 558.878 59.9619 563.875 Q54.9967 568.84 46.5303 568.84 Q37.7774 568.84 32.6531 564.13 Q27.4968 559.387 27.4968 551.366 Q27.4968 544.173 32.1438 540.004 Q36.7589 535.802 44.7161 535.802 M42.9973 541.659 Q38.1912 541.722 35.3266 544.364 Q32.4621 546.974 32.4621 551.303 Q32.4621 556.204 35.2312 559.164 Q38.0002 562.093 43.0292 562.538 L42.9973 541.659 Z" fill="#000000" fill-rule="nonzero" fill-opacity="1" /><path clip-path="url(#clip880)" d="M33.7671 502.732 L14.479 502.732 L14.479 496.876 L64.0042 496.876 L64.0042 502.732 L58.657 502.732 Q61.8398 504.579 63.3994 507.411 Q64.9272 510.212 64.9272 514.159 Q64.9272 520.62 59.771 524.694 Q54.6147 528.736 46.212 528.736 Q37.8093 528.736 32.6531 524.694 Q27.4968 520.62 27.4968 514.159 Q27.4968 510.212 29.0564 507.411 Q30.5842 504.579 33.7671 502.732 M46.212 522.689 Q52.6732 522.689 56.3653 520.047 Q60.0256 517.374 60.0256 512.727 Q60.0256 508.08 56.3653 505.406 Q52.6732 502.732 46.212 502.732 Q39.7508 502.732 36.0905 505.406 Q32.3984 508.08 32.3984 512.727 Q32.3984 517.374 36.0905 520.047 Q39.7508 522.689 46.212 522.689 Z" fill="#000000" fill-rule="nonzero" fill-opacity="1" /><path clip-path="url(#clip880)" d="M16.4842 463.838 L16.4842 457.409 L64.0042 457.409 L64.0042 463.838 L16.4842 463.838 Z" fill="#000000" fill-rule="nonzero" fill-opacity="1" /><path clip-path="url(#clip880)" d="M42.4881 415.236 L64.0042 415.236 L64.0042 421.092 L42.679 421.092 Q37.6183 421.092 35.1038 423.066 Q32.5894 425.039 32.5894 428.986 Q32.5894 433.728 35.6131 436.465 Q38.6368 439.203 43.8567 439.203 L64.0042 439.203 L64.0042 445.091 L28.3562 445.091 L28.3562 439.203 L33.8944 439.203 Q30.6797 437.102 29.0883 434.269 Q27.4968 431.405 27.4968 427.681 Q27.4968 421.538 31.3163 418.387 Q35.1038 415.236 42.4881 415.236 Z" fill="#000000" fill-rule="nonzero" fill-opacity="1" /><path clip-path="url(#clip880)" d="M18.2347 397.762 L28.3562 397.762 L28.3562 385.699 L32.9077 385.699 L32.9077 397.762 L52.2594 397.762 Q56.6199 397.762 57.8613 396.584 Q59.1026 395.375 59.1026 391.715 L59.1026 385.699 L64.0042 385.699 L64.0042 391.715 Q64.0042 398.494 61.4897 401.072 Q58.9434 403.65 52.2594 403.65 L32.9077 403.65 L32.9077 407.947 L28.3562 407.947 L28.3562 403.65 L18.2347 403.65 L18.2347 397.762 Z" fill="#000000" fill-rule="nonzero" fill-opacity="1" /><path clip-path="url(#clip880)" d="M44.7161 347.505 L47.5806 347.505 L47.5806 374.432 Q53.6281 374.05 56.8109 370.803 Q59.9619 367.525 59.9619 361.7 Q59.9619 358.326 59.1344 355.175 Q58.3069 351.993 56.6518 348.873 L62.1899 348.873 Q63.5267 352.024 64.227 355.335 Q64.9272 358.645 64.9272 362.05 Q64.9272 370.58 59.9619 375.577 Q54.9967 380.543 46.5303 380.543 Q37.7774 380.543 32.6531 375.832 Q27.4968 371.09 27.4968 363.069 Q27.4968 355.876 32.1438 351.706 Q36.7589 347.505 44.7161 347.505 M42.9973 353.361 Q38.1912 353.425 35.3266 356.067 Q32.4621 358.677 32.4621 363.005 Q32.4621 367.907 35.2312 370.867 Q38.0002 373.795 43.0292 374.241 L42.9973 353.361 Z" fill="#000000" fill-rule="nonzero" fill-opacity="1" /><path clip-path="url(#clip880)" d="M42.4881 308.26 L64.0042 308.26 L64.0042 314.117 L42.679 314.117 Q37.6183 314.117 35.1038 316.09 Q32.5894 318.063 32.5894 322.01 Q32.5894 326.752 35.6131 329.49 Q38.6368 332.227 43.8567 332.227 L64.0042 332.227 L64.0042 338.115 L28.3562 338.115 L28.3562 332.227 L33.8944 332.227 Q30.6797 330.126 29.0883 327.294 Q27.4968 324.429 27.4968 320.705 Q27.4968 314.562 31.3163 311.411 Q35.1038 308.26 42.4881 308.26 Z" fill="#000000" fill-rule="nonzero" fill-opacity="1" /><path clip-path="url(#clip880)" d="M29.4065 273.853 L34.9447 273.853 Q33.6716 276.336 33.035 279.01 Q32.3984 281.683 32.3984 284.548 Q32.3984 288.908 33.7352 291.105 Q35.072 293.269 37.7456 293.269 Q39.7826 293.269 40.9603 291.709 Q42.1061 290.15 43.1565 285.439 L43.6021 283.434 Q44.9389 277.195 47.3897 274.586 Q49.8086 271.944 54.1691 271.944 Q59.1344 271.944 62.0308 275.89 Q64.9272 279.805 64.9272 286.68 Q64.9272 289.545 64.3543 292.664 Q63.8132 295.751 62.6992 299.189 L56.6518 299.189 Q58.3387 295.942 59.198 292.791 Q60.0256 289.64 60.0256 286.553 Q60.0256 282.415 58.6251 280.187 Q57.1929 277.959 54.6147 277.959 Q52.2276 277.959 50.9545 279.583 Q49.6813 281.174 48.5037 286.617 L48.0262 288.654 Q46.8804 294.096 44.5251 296.515 Q42.138 298.934 38.0002 298.934 Q32.9713 298.934 30.2341 295.37 Q27.4968 291.805 27.4968 285.248 Q27.4968 282.002 27.9743 279.137 Q28.4517 276.272 29.4065 273.853 Z" fill="#000000" fill-rule="nonzero" fill-opacity="1" /><path clip-path="url(#clip880)" d="M28.3562 262.618 L28.3562 256.762 L64.0042 256.762 L64.0042 262.618 L28.3562 262.618 M14.479 262.618 L14.479 256.762 L21.895 256.762 L21.895 262.618 L14.479 262.618 Z" fill="#000000" fill-rule="nonzero" fill-opacity="1" /><path clip-path="url(#clip880)" d="M18.2347 238.715 L28.3562 238.715 L28.3562 226.652 L32.9077 226.652 L32.9077 238.715 L52.2594 238.715 Q56.6199 238.715 57.8613 237.537 Q59.1026 236.328 59.1026 232.667 L59.1026 226.652 L64.0042 226.652 L64.0042 232.667 Q64.0042 239.447 61.4897 242.025 Q58.9434 244.603 52.2594 244.603 L32.9077 244.603 L32.9077 248.9 L28.3562 248.9 L28.3562 244.603 L18.2347 244.603 L18.2347 238.715 Z" fill="#000000" fill-rule="nonzero" fill-opacity="1" /><path clip-path="url(#clip880)" d="M67.3143 204.117 Q73.68 206.6 75.6216 208.955 Q77.5631 211.31 77.5631 215.257 L77.5631 219.936 L72.6615 219.936 L72.6615 216.498 Q72.6615 214.079 71.5157 212.743 Q70.3699 211.406 66.1048 209.783 L63.4312 208.732 L28.3562 223.151 L28.3562 216.944 L56.238 205.804 L28.3562 194.664 L28.3562 188.458 L67.3143 204.117 Z" fill="#000000" fill-rule="nonzero" fill-opacity="1" /><path clip-path="url(#clip880)" d="M940.08 18.8205 L940.08 41.5461 L950.37 41.5461 Q956.081 41.5461 959.201 38.5889 Q962.32 35.6318 962.32 30.163 Q962.32 24.7348 959.201 21.7777 Q956.081 18.8205 950.37 18.8205 L940.08 18.8205 M931.897 12.096 L950.37 12.096 Q960.537 12.096 965.723 16.714 Q970.948 21.2916 970.948 30.163 Q970.948 39.1155 965.723 43.6931 Q960.537 48.2706 950.37 48.2706 L940.08 48.2706 L940.08 72.576 L931.897 72.576 L931.897 12.096 Z" fill="#000000" fill-rule="nonzero" fill-opacity="1" /><path clip-path="url(#clip880)" d="M1006.43 34.1734 Q1005.18 33.4443 1003.68 33.1202 Q1002.22 32.7556 1000.44 32.7556 Q994.119 32.7556 990.717 36.8875 Q987.354 40.9789 987.354 48.6757 L987.354 72.576 L979.86 72.576 L979.86 27.2059 L987.354 27.2059 L987.354 34.2544 Q989.704 30.1225 993.471 28.1376 Q997.239 26.1121 1002.63 26.1121 Q1003.4 26.1121 1004.33 26.2337 Q1005.26 26.3147 1006.39 26.5172 L1006.43 34.1734 Z" fill="#000000" fill-rule="nonzero" fill-opacity="1" /><path clip-path="url(#clip880)" d="M1030.01 32.4315 Q1024.02 32.4315 1020.53 37.1306 Q1017.05 41.7891 1017.05 49.9314 Q1017.05 58.0738 1020.49 62.7728 Q1023.97 67.4314 1030.01 67.4314 Q1035.97 67.4314 1039.45 62.7323 Q1042.93 58.0333 1042.93 49.9314 Q1042.93 41.8701 1039.45 37.1711 Q1035.97 32.4315 1030.01 32.4315 M1030.01 26.1121 Q1039.73 26.1121 1045.28 32.4315 Q1050.83 38.7509 1050.83 49.9314 Q1050.83 61.0714 1045.28 67.4314 Q1039.73 73.7508 1030.01 73.7508 Q1020.25 73.7508 1014.7 67.4314 Q1009.19 61.0714 1009.19 49.9314 Q1009.19 38.7509 1014.7 32.4315 Q1020.25 26.1121 1030.01 26.1121 Z" fill="#000000" fill-rule="nonzero" fill-opacity="1" /><path clip-path="url(#clip880)" d="M1063.19 27.2059 L1070.64 27.2059 L1070.64 73.3862 Q1070.64 82.0551 1067.32 85.944 Q1064.04 89.8329 1056.71 89.8329 L1053.87 89.8329 L1053.87 83.5134 L1055.86 83.5134 Q1060.11 83.5134 1061.65 81.5285 Q1063.19 79.5841 1063.19 73.3862 L1063.19 27.2059 M1063.19 9.54393 L1070.64 9.54393 L1070.64 18.9825 L1063.19 18.9825 L1063.19 9.54393 Z" fill="#000000" fill-rule="nonzero" fill-opacity="1" /><path clip-path="url(#clip880)" d="M1125.04 48.0275 L1125.04 51.6733 L1090.77 51.6733 Q1091.26 59.3701 1095.39 63.421 Q1099.56 67.4314 1106.98 67.4314 Q1111.27 67.4314 1115.28 66.3781 Q1119.33 65.3249 1123.3 63.2184 L1123.3 70.267 Q1119.29 71.9684 1115.08 72.8596 Q1110.87 73.7508 1106.53 73.7508 Q1095.68 73.7508 1089.32 67.4314 Q1083 61.1119 1083 50.3365 Q1083 39.1965 1088.99 32.6746 Q1095.03 26.1121 1105.24 26.1121 Q1114.39 26.1121 1119.7 32.0264 Q1125.04 37.9003 1125.04 48.0275 M1117.59 45.84 Q1117.51 39.7232 1114.15 36.0774 Q1110.83 32.4315 1105.32 32.4315 Q1099.08 32.4315 1095.31 35.9558 Q1091.58 39.4801 1091.02 45.8805 L1117.59 45.84 Z" fill="#000000" fill-rule="nonzero" fill-opacity="1" /><path clip-path="url(#clip880)" d="M1169.93 28.9478 L1169.93 35.9153 Q1166.77 34.1734 1163.57 33.3227 Q1160.41 32.4315 1157.17 32.4315 Q1149.92 32.4315 1145.91 37.0496 Q1141.9 41.6271 1141.9 49.9314 Q1141.9 58.2358 1145.91 62.8538 Q1149.92 67.4314 1157.17 67.4314 Q1160.41 67.4314 1163.57 66.5807 Q1166.77 65.6895 1169.93 63.9476 L1169.93 70.8341 Q1166.81 72.2924 1163.45 73.0216 Q1160.13 73.7508 1156.36 73.7508 Q1146.11 73.7508 1140.07 67.3098 Q1134.04 60.8689 1134.04 49.9314 Q1134.04 38.832 1140.11 32.472 Q1146.23 26.1121 1156.84 26.1121 Q1160.29 26.1121 1163.57 26.8413 Q1166.85 27.5299 1169.93 28.9478 Z" fill="#000000" fill-rule="nonzero" fill-opacity="1" /><path clip-path="url(#clip880)" d="M1190.26 14.324 L1190.26 27.2059 L1205.62 27.2059 L1205.62 32.9987 L1190.26 32.9987 L1190.26 57.6282 Q1190.26 63.1779 1191.76 64.7578 Q1193.3 66.3376 1197.96 66.3376 L1205.62 66.3376 L1205.62 72.576 L1197.96 72.576 Q1189.33 72.576 1186.05 69.3758 Q1182.77 66.1351 1182.77 57.6282 L1182.77 32.9987 L1177.3 32.9987 L1177.3 27.2059 L1182.77 27.2059 L1182.77 14.324 L1190.26 14.324 Z" fill="#000000" fill-rule="nonzero" fill-opacity="1" /><path clip-path="url(#clip880)" d="M1215.42 27.2059 L1222.87 27.2059 L1222.87 72.576 L1215.42 72.576 L1215.42 27.2059 M1215.42 9.54393 L1222.87 9.54393 L1222.87 18.9825 L1215.42 18.9825 L1215.42 9.54393 Z" fill="#000000" fill-rule="nonzero" fill-opacity="1" /><path clip-path="url(#clip880)" d="M1256.05 32.4315 Q1250.06 32.4315 1246.57 37.1306 Q1243.09 41.7891 1243.09 49.9314 Q1243.09 58.0738 1246.53 62.7728 Q1250.01 67.4314 1256.05 67.4314 Q1262.01 67.4314 1265.49 62.7323 Q1268.97 58.0333 1268.97 49.9314 Q1268.97 41.8701 1265.49 37.1711 Q1262.01 32.4315 1256.05 32.4315 M1256.05 26.1121 Q1265.77 26.1121 1271.32 32.4315 Q1276.87 38.7509 1276.87 49.9314 Q1276.87 61.0714 1271.32 67.4314 Q1265.77 73.7508 1256.05 73.7508 Q1246.29 73.7508 1240.74 67.4314 Q1235.23 61.0714 1235.23 49.9314 Q1235.23 38.7509 1240.74 32.4315 Q1246.29 26.1121 1256.05 26.1121 Z" fill="#000000" fill-rule="nonzero" fill-opacity="1" /><path clip-path="url(#clip880)" d="M1326.94 45.1919 L1326.94 72.576 L1319.49 72.576 L1319.49 45.4349 Q1319.49 38.994 1316.98 35.7938 Q1314.46 32.5936 1309.44 32.5936 Q1303.41 32.5936 1299.92 36.4419 Q1296.44 40.2903 1296.44 46.9338 L1296.44 72.576 L1288.94 72.576 L1288.94 27.2059 L1296.44 27.2059 L1296.44 34.2544 Q1299.11 30.163 1302.72 28.1376 Q1306.36 26.1121 1311.1 26.1121 Q1318.92 26.1121 1322.93 30.9732 Q1326.94 35.7938 1326.94 45.1919 Z" fill="#000000" fill-rule="nonzero" fill-opacity="1" /><path clip-path="url(#clip880)" d="M1385.76 32.4315 Q1379.77 32.4315 1376.28 37.1306 Q1372.8 41.7891 1372.8 49.9314 Q1372.8 58.0738 1376.24 62.7728 Q1379.72 67.4314 1385.76 67.4314 Q1391.72 67.4314 1395.2 62.7323 Q1398.68 58.0333 1398.68 49.9314 Q1398.68 41.8701 1395.2 37.1711 Q1391.72 32.4315 1385.76 32.4315 M1385.76 26.1121 Q1395.48 26.1121 1401.03 32.4315 Q1406.58 38.7509 1406.58 49.9314 Q1406.58 61.0714 1401.03 67.4314 Q1395.48 73.7508 1385.76 73.7508 Q1376 73.7508 1370.45 67.4314 Q1364.94 61.0714 1364.94 49.9314 Q1364.94 38.7509 1370.45 32.4315 Q1376 26.1121 1385.76 26.1121 Z" fill="#000000" fill-rule="nonzero" fill-opacity="1" /><path clip-path="url(#clip880)" d="M1456.65 45.1919 L1456.65 72.576 L1449.2 72.576 L1449.2 45.4349 Q1449.2 38.994 1446.69 35.7938 Q1444.17 32.5936 1439.15 32.5936 Q1433.12 32.5936 1429.63 36.4419 Q1426.15 40.2903 1426.15 46.9338 L1426.15 72.576 L1418.65 72.576 L1418.65 27.2059 L1426.15 27.2059 L1426.15 34.2544 Q1428.82 30.163 1432.43 28.1376 Q1436.07 26.1121 1440.81 26.1121 Q1448.63 26.1121 1452.64 30.9732 Q1456.65 35.7938 1456.65 45.1919 Z" fill="#000000" fill-rule="nonzero" fill-opacity="1" /><path clip-path="url(#clip880)" d="M1478.89 14.324 L1478.89 27.2059 L1494.24 27.2059 L1494.24 32.9987 L1478.89 32.9987 L1478.89 57.6282 Q1478.89 63.1779 1480.39 64.7578 Q1481.93 66.3376 1486.59 66.3376 L1494.24 66.3376 L1494.24 72.576 L1486.59 72.576 Q1477.96 72.576 1474.68 69.3758 Q1471.4 66.1351 1471.4 57.6282 L1471.4 32.9987 L1465.93 32.9987 L1465.93 27.2059 L1471.4 27.2059 L1471.4 14.324 L1478.89 14.324 Z" fill="#000000" fill-rule="nonzero" fill-opacity="1" /><path clip-path="url(#clip880)" d="M1521.63 32.4315 Q1515.63 32.4315 1512.15 37.1306 Q1508.67 41.7891 1508.67 49.9314 Q1508.67 58.0738 1512.11 62.7728 Q1515.59 67.4314 1521.63 67.4314 Q1527.58 67.4314 1531.07 62.7323 Q1534.55 58.0333 1534.55 49.9314 Q1534.55 41.8701 1531.07 37.1711 Q1527.58 32.4315 1521.63 32.4315 M1521.63 26.1121 Q1531.35 26.1121 1536.9 32.4315 Q1542.45 38.7509 1542.45 49.9314 Q1542.45 61.0714 1536.9 67.4314 Q1531.35 73.7508 1521.63 73.7508 Q1511.87 73.7508 1506.32 67.4314 Q1500.81 61.0714 1500.81 49.9314 Q1500.81 38.7509 1506.32 32.4315 Q1511.87 26.1121 1521.63 26.1121 Z" fill="#000000" fill-rule="nonzero" fill-opacity="1" /><path clip-path="url(#clip880)" d="M1598.76 33.1202 Q1592.6 33.1202 1589.28 37.5762 Q1585.79 42.2347 1585.79 49.9314 Q1585.79 58.0738 1589.24 62.7728 Q1592.72 67.4314 1598.76 67.4314 Q1604.71 67.4314 1608.2 62.7323 Q1611.68 58.0333 1611.68 49.9314 Q1611.68 42.5183 1608.2 37.5762 Q1605 33.1202 1598.76 33.1202 M1598.76 27.2059 L1623.51 27.2059 L1623.51 34.6595 L1615.16 34.6595 Q1619.58 40.9789 1619.58 49.9314 Q1619.58 61.0714 1614.03 67.3908 Q1608.48 73.7508 1598.76 73.7508 Q1588.99 73.7508 1583.49 67.3908 Q1577.94 61.0714 1577.94 49.9314 Q1577.94 38.7104 1583.49 32.4315 Q1588.06 27.2059 1598.76 27.2059 Z" fill="#000000" fill-rule="nonzero" fill-opacity="1" /><path clip-path="url(#clip880)" d="M1647.17 54.2659 Q1650.89 54.9951 1652.92 57.2231 Q1654.98 59.4106 1654.98 62.7323 Q1654.98 67.7554 1651.14 70.4695 Q1647.29 73.1836 1640.12 73.1836 Q1637.81 73.1836 1635.26 72.738 Q1632.74 72.3329 1629.91 71.5228 L1629.91 66.6212 Q1632.02 67.7149 1634.41 68.2415 Q1636.84 68.7682 1639.55 68.7682 Q1643.97 68.7682 1646.4 67.1883 Q1648.83 65.5679 1648.83 62.7323 Q1648.83 59.7346 1646.56 58.1953 Q1644.33 56.6559 1639.96 56.6559 L1636.47 56.6559 L1636.47 52.281 L1640.28 52.281 Q1644.09 52.281 1646.03 51.0252 Q1648.02 49.7289 1648.02 47.2984 Q1648.02 44.9488 1645.99 43.7336 Q1643.97 42.4778 1640.12 42.4778 Q1638.5 42.4778 1636.43 42.8424 Q1634.36 43.2069 1631.08 44.1387 L1631.08 39.4801 Q1634.04 38.7915 1636.63 38.4269 Q1639.23 38.0623 1641.45 38.0623 Q1647.29 38.0623 1650.69 40.4523 Q1654.13 42.8424 1654.13 46.8528 Q1654.13 49.6479 1652.31 51.5923 Q1650.49 53.5368 1647.17 54.2659 Z" fill="#000000" fill-rule="nonzero" fill-opacity="1" /><path clip-path="url(#clip881)" d="M234.125 1420.07 L248.344 1417.59 L262.563 1415.68 L276.782 1413.94 L291.001 1412.25 L305.22 1410.56 L319.439 1408.82 L333.658 1407.01 L347.877 1405.09 L362.096 1403.04 L376.315 1400.83 L390.534 1398.41 L404.753 1395.74 L418.972 1392.77 L433.191 1389.43 L447.41 1385.63 L461.629 1381.25 L475.848 1376.15 L490.067 1370.11 L504.286 1362.85 L518.505 1353.93 L532.724 1342.78 L546.943 1328.49 L561.162 1309.8 L575.381 1284.92 L589.6 1251.83 L603.819 1209.56 L618.038 1160.8 L632.257 1112.59 L646.476 1071.52 L660.695 1039.59 L674.914 1015.53 L689.133 997.294 L703.352 983.183 L717.571 971.973 L731.79 962.823 L746.009 955.159 L760.228 948.577 L774.447 942.788 L788.666 937.58 L802.885 932.79 L817.104 928.286 L831.323 923.958 L845.542 919.709 L859.761 915.447 L873.98 911.077 L888.199 906.498 L902.418 901.591 L916.637 896.212 L930.856 890.175 L945.075 883.227 L959.294 875.014 L973.513 865.017 L987.732 852.438 L1001.95 835.99 L1016.17 813.502 L1030.39 781.143 L1044.61 732.125 L1058.83 656.172 L1073.05 548.529 L1087.27 433.386 L1101.48 344.994 L1115.7 287.233 L1129.92 249.803 L1144.14 224.466 L1158.36 206.448 L1172.58 193.071 L1186.8 182.781 L1201.02 174.635 L1215.24 168.033 L1229.46 162.576 L1243.67 157.994 L1257.89 154.092 L1272.11 150.732 L1286.33 147.81 L1300.55 145.247 L1314.77 142.984 L1328.99 140.971 L1343.21 139.173 L1357.43 137.558 L1371.65 136.103 L1385.86 134.787 L1400.08 133.593 L1414.3 132.508 L1428.52 131.519 L1442.74 130.618 L1456.96 129.795 L1471.18 129.043 L1485.4 128.356 L1499.62 127.73 L1513.84 127.158 L1528.05 126.638 L1542.27 126.166 L1556.49 125.739 L1570.71 125.354 L1584.93 125.009 L1599.15 124.703 L1613.37 124.433 L1627.59 124.198 L1641.81 123.997 L1656.03 123.83 L1670.24 123.695 L1684.46 123.592 L1698.68 123.52 L1712.9 123.481 L1727.12 123.472 L1741.34 123.495 L1755.56 123.551 L1769.78 123.639 L1784 123.761 L1798.22 123.917 L1812.43 124.109 L1826.65 124.338 L1840.87 124.607 L1855.09 124.917 L1869.31 125.271 L1883.53 125.672 L1897.75 126.124 L1911.97 126.63 L1926.19 127.197 L1940.41 127.828 L1954.62 128.532 L1968.84 129.317 L1983.06 130.192 L1997.28 131.169 L2011.5 132.263 L2025.72 133.491 L2039.94 134.875 L2054.16 136.444 L2068.38 138.234 L2082.59 140.29 L2096.81 142.676 L2111.03 145.477 L2125.25 148.813 L2139.47 152.858 L2153.69 157.88 L2167.91 164.303 L2182.13 172.861 L2196.35 184.922 L2210.57 203.381 L2224.78 235.475 L2239 304.007 L2253.22 485.265 L2267.44 734.051 L2281.66 842.564 L2295.88 890.253 L2310.1 919.556 L2324.32 944.26 L2338.54 974.253 L2352.76 1043.84 L2352.76 1423.18 L2338.54 1423.18 L2324.32 1423.18 L2310.1 1423.18 L2295.88 1423.18 L2281.66 1423.18 L2267.44 1423.18 L2253.22 1423.18 L2239 1423.18 L2224.78 1423.18 L2210.57 1423.18 L2196.35 1423.18 L2182.13 1423.18 L2167.91 1423.18 L2153.69 1423.18 L2139.47 1423.18 L2125.25 1423.18 L2111.03 1423.18 L2096.81 1423.18 L2082.59 1423.18 L2068.38 1423.18 L2054.16 1423.18 L2039.94 1423.18 L2025.72 1423.18 L2011.5 1423.18 L1997.28 1423.18 L1983.06 1423.18 L1968.84 1423.18 L1954.62 1423.18 L1940.41 1423.18 L1926.19 1423.18 L1911.97 1423.18 L1897.75 1423.18 L1883.53 1423.18 L1869.31 1423.18 L1855.09 1423.18 L1840.87 1423.18 L1826.65 1423.18 L1812.43 1423.18 L1798.22 1423.18 L1784 1423.18 L1769.78 1423.18 L1755.56 1423.18 L1741.34 1423.18 L1727.12 1423.18 L1712.9 1423.18 L1698.68 1423.18 L1684.46 1423.18 L1670.24 1423.18 L1656.03 1423.18 L1641.81 1423.18 L1627.59 1423.18 L1613.37 1423.18 L1599.15 1423.18 L1584.93 1423.18 L1570.71 1423.18 L1556.49 1423.18 L1542.27 1423.18 L1528.05 1423.18 L1513.84 1423.18 L1499.62 1423.18 L1485.4 1423.18 L1471.18 1423.18 L1456.96 1423.18 L1442.74 1423.18 L1428.52 1423.18 L1414.3 1423.18 L1400.08 1423.18 L1385.86 1423.18 L1371.65 1423.18 L1357.43 1423.18 L1343.21 1423.18 L1328.99 1423.18 L1314.77 1423.18 L1300.55 1423.18 L1286.33 1423.18 L1272.11 1423.18 L1257.89 1423.18 L1243.67 1423.18 L1229.46 1423.18 L1215.24 1423.18 L1201.02 1423.18 L1186.8 1423.18 L1172.58 1423.18 L1158.36 1423.18 L1144.14 1423.18 L1129.92 1423.18 L1115.7 1423.18 L1101.48 1423.18 L1087.27 1423.18 L1073.05 1423.18 L1058.83 1423.18 L1044.61 1423.18 L1030.39 1423.18 L1016.17 1423.18 L1001.95 1423.18 L987.732 1423.18 L973.513 1423.18 L959.294 1423.18 L945.075 1423.18 L930.856 1423.18 L916.637 1423.18 L902.418 1423.18 L888.199 1423.18 L873.98 1423.18 L859.761 1423.18 L845.542 1423.18 L831.323 1423.18 L817.104 1423.18 L802.885 1423.18 L788.666 1423.18 L774.447 1423.18 L760.228 1423.18 L746.009 1423.18 L731.79 1423.18 L717.571 1423.18 L703.352 1423.18 L689.133 1423.18 L674.914 1423.18 L660.695 1423.18 L646.476 1423.18 L632.257 1423.18 L618.038 1423.18 L603.819 1423.18 L589.6 1423.18 L575.381 1423.18 L561.162 1423.18 L546.943 1423.18 L532.724 1423.18 L518.505 1423.18 L504.286 1423.18 L490.067 1423.18 L475.848 1423.18 L461.629 1423.18 L447.41 1423.18 L433.191 1423.18 L418.972 1423.18 L404.753 1423.18 L390.534 1423.18 L376.315 1423.18 L362.096 1423.18 L347.877 1423.18 L333.658 1423.18 L319.439 1423.18 L305.22 1423.18 L291.001 1423.18 L276.782 1423.18 L262.563 1423.18 L248.344 1423.18 L234.125 1423.18  Z" fill="#e69f00" fill-rule="evenodd" fill-opacity="0.5"/>
<polyline clip-path="url(#clip881)" style="stroke:#e69f00; stroke-linecap:round; stroke-linejoin:round; stroke-width:4; stroke-opacity:1; fill:none" points="234.125,1420.07 248.344,1417.59 262.563,1415.68 276.782,1413.94 291.001,1412.25 305.22,1410.56 319.439,1408.82 333.658,1407.01 347.877,1405.09 362.096,1403.04 376.315,1400.83 390.534,1398.41 404.753,1395.74 418.972,1392.77 433.191,1389.43 447.41,1385.63 461.629,1381.25 475.848,1376.15 490.067,1370.11 504.286,1362.85 518.505,1353.93 532.724,1342.78 546.943,1328.49 561.162,1309.8 575.381,1284.92 589.6,1251.83 603.819,1209.56 618.038,1160.8 632.257,1112.59 646.476,1071.52 660.695,1039.59 674.914,1015.53 689.133,997.294 703.352,983.183 717.571,971.973 731.79,962.823 746.009,955.159 760.228,948.577 774.447,942.788 788.666,937.58 802.885,932.79 817.104,928.286 831.323,923.958 845.542,919.709 859.761,915.447 873.98,911.077 888.199,906.498 902.418,901.591 916.637,896.212 930.856,890.175 945.075,883.227 959.294,875.014 973.513,865.017 987.732,852.438 1001.95,835.99 1016.17,813.502 1030.39,781.143 1044.61,732.125 1058.83,656.172 1073.05,548.529 1087.27,433.386 1101.48,344.994 1115.7,287.233 1129.92,249.803 1144.14,224.466 1158.36,206.448 1172.58,193.071 1186.8,182.781 1201.02,174.635 1215.24,168.033 1229.46,162.576 1243.67,157.994 1257.89,154.092 1272.11,150.732 1286.33,147.81 1300.55,145.247 1314.77,142.984 1328.99,140.971 1343.21,139.173 1357.43,137.558 1371.65,136.103 1385.86,134.787 1400.08,133.593 1414.3,132.508 1428.52,131.519 1442.74,130.618 1456.96,129.795 1471.18,129.043 1485.4,128.356 1499.62,127.73 1513.84,127.158 1528.05,126.638 1542.27,126.166 1556.49,125.739 1570.71,125.354 1584.93,125.009 1599.15,124.703 1613.37,124.433 1627.59,124.198 1641.81,123.997 1656.03,123.83 1670.24,123.695 1684.46,123.592 1698.68,123.52 1712.9,123.481 1727.12,123.472 1741.34,123.495 1755.56,123.551 1769.78,123.639 1784,123.761 1798.22,123.917 1812.43,124.109 1826.65,124.338 1840.87,124.607 1855.09,124.917 1869.31,125.271 1883.53,125.672 1897.75,126.124 1911.97,126.63 1926.19,127.197 1940.41,127.828 1954.62,128.532 1968.84,129.317 1983.06,130.192 1997.28,131.169 2011.5,132.263 2025.72,133.491 2039.94,134.875 2054.16,136.444 2068.38,138.234 2082.59,140.29 2096.81,142.676 2111.03,145.477 2125.25,148.813 2139.47,152.858 2153.69,157.88 2167.91,164.303 2182.13,172.861 2196.35,184.922 2210.57,203.381 2224.78,235.475 2239,304.007 2253.22,485.265 2267.44,734.051 2281.66,842.564 2295.88,890.253 2310.1,919.556 2324.32,944.26 2338.54,974.253 2352.76,1043.84 "/>
</svg>
