<?xml version="1.0" encoding="utf-8"?>
<svg xmlns="http://www.w3.org/2000/svg" xmlns:xlink="http://www.w3.org/1999/xlink" width="600" height="400" viewBox="0 0 2400 1600">
<defs>
  <clipPath id="clip720">
    <rect x="0" y="0" width="2400" height="1600"/>
  </clipPath>
</defs>
<path clip-path="url(#clip720)" d="M0 1600 L2400 1600 L2400 0 L0 0  Z" fill="#ffffff" fill-rule="evenodd" fill-opacity="1"/>
<defs>
  <clipPath id="clip721">
    <rect x="234" y="123" width="2120" height="1301"/>
  </clipPath>
</defs>
<path clip-path="url(#clip720)" d="M234.125 1423.18 L2352.76 1423.18 L2352.76 123.472 L234.125 123.472  Z" fill="#ffffff" fill-rule="evenodd" fill-opacity="1"/>
<polyline clip-path="url(#clip720)" style="stroke:#000000; stroke-linecap:round; stroke-linejoin:round; stroke-width:4; stroke-opacity:1; fill:none" points="234.125,1423.18 2352.76,1423.18 "/>
<polyline clip-path="url(#clip720)" style="stroke:#000000; stroke-linecap:round; stroke-linejoin:round; stroke-width:4; stroke-opacity:1; fill:none" points="234.125,123.472 2352.76,123.472 "/>
<polyline clip-path="url(#clip720)" style="stroke:#000000; stroke-linecap:round; stroke-linejoin:round; stroke-width:4; stroke-opacity:1; fill:none" points="496.234,1423.18 496.234,1404.28 "/>
<polyline clip-path="url(#clip720)" style="stroke:#000000; stroke-linecap:round; stroke-linejoin:round; stroke-width:4; stroke-opacity:1; fill:none" points="967.688,1423.18 967.688,1404.28 "/>
<polyline clip-path="url(#clip720)" style="stroke:#000000; stroke-linecap:round; stroke-linejoin:round; stroke-width:4; stroke-opacity:1; fill:none" points="1439.14,1423.18 1439.14,1404.28 "/>
<polyline clip-path="url(#clip720)" style="stroke:#000000; stroke-linecap:round; stroke-linejoin:round; stroke-width:4; stroke-opacity:1; fill:none" points="1910.6,1423.18 1910.6,1404.28 "/>
<polyline clip-path="url(#clip720)" style="stroke:#000000; stroke-linecap:round; stroke-linejoin:round; stroke-width:4; stroke-opacity:1; fill:none" points="496.234,123.472 496.234,142.37 "/>
<polyline clip-path="url(#clip720)" style="stroke:#000000; stroke-linecap:round; stroke-linejoin:round; stroke-width:4; stroke-opacity:1; fill:none" points="967.688,123.472 967.688,142.37 "/>
<polyline clip-path="url(#clip720)" style="stroke:#000000; stroke-linecap:round; stroke-linejoin:round; stroke-width:4; stroke-opacity:1; fill:none" points="1439.14,123.472 1439.14,142.37 "/>
<polyline clip-path="url(#clip720)" style="stroke:#000000; stroke-linecap:round; stroke-linejoin:round; stroke-width:4; stroke-opacity:1; fill:none" points="1910.6,123.472 1910.6,142.37 "/>
<polyline clip-path="url(#clip720)" style="stroke:#000000; stroke-linecap:round; stroke-linejoin:round; stroke-width:4; stroke-opacity:1; fill:none" points="307.653,1423.18 307.653,1413.73 "/>
<polyline clip-path="url(#clip720)" style="stroke:#000000; stroke-linecap:round; stroke-linejoin:round; stroke-width:4; stroke-opacity:1; fill:none" points="401.943,1423.18 401.943,1413.73 "/>
<polyline clip-path="url(#clip720)" style="stroke:#000000; stroke-linecap:round; stroke-linejoin:round; stroke-width:4; stroke-opacity:1; fill:none" points="590.525,1423.18 590.525,1413.73 "/>
<polyline clip-path="url(#clip720)" style="stroke:#000000; stroke-linecap:round; stroke-linejoin:round; stroke-width:4; stroke-opacity:1; fill:none" points="684.816,1423.18 684.816,1413.73 "/>
<polyline clip-path="url(#clip720)" style="stroke:#000000; stroke-linecap:round; stroke-linejoin:round; stroke-width:4; stroke-opacity:1; fill:none" points="779.106,1423.18 779.106,1413.73 "/>
<polyline clip-path="url(#clip720)" style="stroke:#000000; stroke-linecap:round; stroke-linejoin:round; stroke-width:4; stroke-opacity:1; fill:none" points="873.397,1423.18 873.397,1413.73 "/>
<polyline clip-path="url(#clip720)" style="stroke:#000000; stroke-linecap:round; stroke-linejoin:round; stroke-width:4; stroke-opacity:1; fill:none" points="1061.98,1423.18 1061.98,1413.73 "/>
<polyline clip-path="url(#clip720)" style="stroke:#000000; stroke-linecap:round; stroke-linejoin:round; stroke-width:4; stroke-opacity:1; fill:none" points="1156.27,1423.18 1156.27,1413.73 "/>
<polyline clip-path="url(#clip720)" style="stroke:#000000; stroke-linecap:round; stroke-linejoin:round; stroke-width:4; stroke-opacity:1; fill:none" points="1250.56,1423.18 1250.56,1413.73 "/>
<polyline clip-path="url(#clip720)" style="stroke:#000000; stroke-linecap:round; stroke-linejoin:round; stroke-width:4; stroke-opacity:1; fill:none" points="1344.85,1423.18 1344.85,1413.73 "/>
<polyline clip-path="url(#clip720)" style="stroke:#000000; stroke-linecap:round; stroke-linejoin:round; stroke-width:4; stroke-opacity:1; fill:none" points="1533.43,1423.18 1533.43,1413.73 "/>
<polyline clip-path="url(#clip720)" style="stroke:#000000; stroke-linecap:round; stroke-linejoin:round; stroke-width:4; stroke-opacity:1; fill:none" points="1627.72,1423.18 1627.72,1413.73 "/>
<polyline clip-path="url(#clip720)" style="stroke:#000000; stroke-linecap:round; stroke-linejoin:round; stroke-width:4; stroke-opacity:1; fill:none" points="1722.01,1423.18 1722.01,1413.73 "/>
<polyline clip-path="url(#clip720)" style="stroke:#000000; stroke-linecap:round; stroke-linejoin:round; stroke-width:4; stroke-opacity:1; fill:none" points="1816.3,1423.18 1816.3,1413.73 "/>
<polyline clip-path="url(#clip720)" style="stroke:#000000; stroke-linecap:round; stroke-linejoin:round; stroke-width:4; stroke-opacity:1; fill:none" points="2004.89,1423.18 2004.89,1413.73 "/>
<polyline clip-path="url(#clip720)" style="stroke:#000000; stroke-linecap:round; stroke-linejoin:round; stroke-width:4; stroke-opacity:1; fill:none" points="2099.18,1423.18 2099.18,1413.73 "/>
<polyline clip-path="url(#clip720)" style="stroke:#000000; stroke-linecap:round; stroke-linejoin:round; stroke-width:4; stroke-opacity:1; fill:none" points="2193.47,1423.18 2193.47,1413.73 "/>
<polyline clip-path="url(#clip720)" style="stroke:#000000; stroke-linecap:round; stroke-linejoin:round; stroke-width:4; stroke-opacity:1; fill:none" points="2287.76,1423.18 2287.76,1413.73 "/>
<polyline clip-path="url(#clip720)" style="stroke:#000000; stroke-linecap:round; stroke-linejoin:round; stroke-width:4; stroke-opacity:1; fill:none" points="307.653,123.472 307.653,132.921 "/>
<polyline clip-path="url(#clip720)" style="stroke:#000000; stroke-linecap:round; stroke-linejoin:round; stroke-width:4; stroke-opacity:1; fill:none" points="401.943,123.472 401.943,132.921 "/>
<polyline clip-path="url(#clip720)" style="stroke:#000000; stroke-linecap:round; stroke-linejoin:round; stroke-width:4; stroke-opacity:1; fill:none" points="590.525,123.472 590.525,132.921 "/>
<polyline clip-path="url(#clip720)" style="stroke:#000000; stroke-linecap:round; stroke-linejoin:round; stroke-width:4; stroke-opacity:1; fill:none" points="684.816,123.472 684.816,132.921 "/>
<polyline clip-path="url(#clip720)" style="stroke:#000000; stroke-linecap:round; stroke-linejoin:round; stroke-width:4; stroke-opacity:1; fill:none" points="779.106,123.472 779.106,132.921 "/>
<polyline clip-path="url(#clip720)" style="stroke:#000000; stroke-linecap:round; stroke-linejoin:round; stroke-width:4; stroke-opacity:1; fill:none" points="873.397,123.472 873.397,132.921 "/>
<polyline clip-path="url(#clip720)" style="stroke:#000000; stroke-linecap:round; stroke-linejoin:round; stroke-width:4; stroke-opacity:1; fill:none" points="1061.98,123.472 1061.98,132.921 "/>
<polyline clip-path="url(#clip720)" style="stroke:#000000; stroke-linecap:round; stroke-linejoin:round; stroke-width:4; stroke-opacity:1; fill:none" points="1156.27,123.472 1156.27,132.921 "/>
<polyline clip-path="url(#clip720)" style="stroke:#000000; stroke-linecap:round; stroke-linejoin:round; stroke-width:4; stroke-opacity:1; fill:none" points="1250.56,123.472 1250.56,132.921 "/>
<polyline clip-path="url(#clip720)" style="stroke:#000000; stroke-linecap:round; stroke-linejoin:round; stroke-width:4; stroke-opacity:1; fill:none" points="1344.85,123.472 1344.85,132.921 "/>
<polyline clip-path="url(#clip720)" style="stroke:#000000; stroke-linecap:round; stroke-linejoin:round; stroke-width:4; stroke-opacity:1; fill:none" points="1533.43,123.472 1533.43,132.921 "/>
<polyline clip-path="url(#clip720)" style="stroke:#000000; stroke-linecap:round; stroke-linejoin:round; stroke-width:4; stroke-opacity:1; fill:none" points="1627.72,123.472 1627.72,132.921 "/>
<polyline clip-path="url(#clip720)" style="stroke:#000000; stroke-linecap:round; stroke-linejoin:round; stroke-width:4; stroke-opacity:1; fill:none" points="1722.01,123.472 1722.01,132.921 "/>
<polyline clip-path="url(#clip720)" style="stroke:#000000; stroke-linecap:round; stroke-linejoin:round; stroke-width:4; stroke-opacity:1; fill:none" points="1816.3,123.472 1816.3,132.921 "/>
<polyline clip-path="url(#clip720)" style="stroke:#000000; stroke-linecap:round; stroke-linejoin:round; stroke-width:4; stroke-opacity:1; fill:none" points="2004.89,123.472 2004.89,132.921 "/>
<polyline clip-path="url(#clip720)" style="stroke:#000000; stroke-linecap:round; stroke-linejoin:round; stroke-width:4; stroke-opacity:1; fill:none" points="2099.18,123.472 2099.18,132.921 "/>
<polyline clip-path="url(#clip720)" style="stroke:#000000; stroke-linecap:round; stroke-linejoin:round; stroke-width:4; stroke-opacity:1; fill:none" points="2193.47,123.472 2193.47,132.921 "/>
<polyline clip-path="url(#clip720)" style="stroke:#000000; stroke-linecap:round; stroke-linejoin:round; stroke-width:4; stroke-opacity:1; fill:none" points="2287.76,123.472 2287.76,132.921 "/>
<path clip-path="url(#clip720)" d="M470.679 1481.64 L478.318 1481.64 L478.318 1455.28 L470.008 1456.95 L470.008 1452.69 L478.271 1451.02 L482.947 1451.02 L482.947 1481.64 L490.586 1481.64 L490.586 1485.58 L470.679 1485.58 L470.679 1481.64 Z" fill="#000000" fill-rule="nonzero" fill-opacity="1" /><path clip-path="url(#clip720)" d="M512.878 1455.09 L501.072 1473.54 L512.878 1473.54 L512.878 1455.09 M511.651 1451.02 L517.53 1451.02 L517.53 1473.54 L522.461 1473.54 L522.461 1477.43 L517.53 1477.43 L517.53 1485.58 L512.878 1485.58 L512.878 1477.43 L497.276 1477.43 L497.276 1472.92 L511.651 1451.02 Z" fill="#000000" fill-rule="nonzero" fill-opacity="1" /><path clip-path="url(#clip720)" d="M942.295 1481.64 L949.933 1481.64 L949.933 1455.28 L941.623 1456.95 L941.623 1452.69 L949.887 1451.02 L954.563 1451.02 L954.563 1481.64 L962.202 1481.64 L962.202 1485.58 L942.295 1485.58 L942.295 1481.64 Z" fill="#000000" fill-rule="nonzero" fill-opacity="1" /><path clip-path="url(#clip720)" d="M982.225 1466.44 Q979.077 1466.44 977.225 1468.59 Q975.396 1470.74 975.396 1474.49 Q975.396 1478.22 977.225 1480.39 Q979.077 1482.55 982.225 1482.55 Q985.373 1482.55 987.202 1480.39 Q989.054 1478.22 989.054 1474.49 Q989.054 1470.74 987.202 1468.59 Q985.373 1466.44 982.225 1466.44 M991.507 1451.78 L991.507 1456.04 Q989.748 1455.21 987.942 1454.77 Q986.16 1454.33 984.401 1454.33 Q979.771 1454.33 977.318 1457.45 Q974.887 1460.58 974.54 1466.9 Q975.906 1464.89 977.966 1463.82 Q980.026 1462.73 982.503 1462.73 Q987.711 1462.73 990.72 1465.9 Q993.753 1469.05 993.753 1474.49 Q993.753 1479.82 990.605 1483.03 Q987.456 1486.25 982.225 1486.25 Q976.23 1486.25 973.058 1481.67 Q969.887 1477.06 969.887 1468.33 Q969.887 1460.14 973.776 1455.28 Q977.665 1450.39 984.216 1450.39 Q985.975 1450.39 987.757 1450.74 Q989.563 1451.09 991.507 1451.78 Z" fill="#000000" fill-rule="nonzero" fill-opacity="1" /><path clip-path="url(#clip720)" d="M1413.88 1481.64 L1421.51 1481.64 L1421.51 1455.28 L1413.2 1456.95 L1413.2 1452.69 L1421.47 1451.02 L1426.14 1451.02 L1426.14 1481.64 L1433.78 1481.64 L1433.78 1485.58 L1413.88 1485.58 L1413.88 1481.64 Z" fill="#000000" fill-rule="nonzero" fill-opacity="1" /><path clip-path="url(#clip720)" d="M1453.23 1469.17 Q1449.89 1469.17 1447.97 1470.95 Q1446.07 1472.73 1446.07 1475.86 Q1446.07 1478.98 1447.97 1480.77 Q1449.89 1482.55 1453.23 1482.55 Q1456.56 1482.55 1458.48 1480.77 Q1460.4 1478.96 1460.4 1475.86 Q1460.4 1472.73 1458.48 1470.95 Q1456.58 1469.17 1453.23 1469.17 M1448.55 1467.18 Q1445.54 1466.44 1443.85 1464.38 Q1442.19 1462.32 1442.19 1459.35 Q1442.19 1455.21 1445.13 1452.8 Q1448.09 1450.39 1453.23 1450.39 Q1458.39 1450.39 1461.33 1452.8 Q1464.27 1455.21 1464.27 1459.35 Q1464.27 1462.32 1462.58 1464.38 Q1460.91 1466.44 1457.93 1467.18 Q1461.31 1467.96 1463.18 1470.26 Q1465.08 1472.55 1465.08 1475.86 Q1465.08 1480.88 1462 1483.57 Q1458.94 1486.25 1453.23 1486.25 Q1447.51 1486.25 1444.43 1483.57 Q1441.38 1480.88 1441.38 1475.86 Q1441.38 1472.55 1443.27 1470.26 Q1445.17 1467.96 1448.55 1467.18 M1446.84 1459.79 Q1446.84 1462.48 1448.51 1463.98 Q1450.19 1465.49 1453.23 1465.49 Q1456.24 1465.49 1457.93 1463.98 Q1459.64 1462.48 1459.64 1459.79 Q1459.64 1457.11 1457.93 1455.6 Q1456.24 1454.1 1453.23 1454.1 Q1450.19 1454.1 1448.51 1455.6 Q1446.84 1457.11 1446.84 1459.79 Z" fill="#000000" fill-rule="nonzero" fill-opacity="1" /><path clip-path="url(#clip720)" d="M1889.37 1481.64 L1905.69 1481.64 L1905.69 1485.58 L1883.74 1485.58 L1883.74 1481.64 Q1886.41 1478.89 1890.99 1474.26 Q1895.6 1469.61 1896.78 1468.27 Q1899.02 1465.74 1899.9 1464.01 Q1900.8 1462.25 1900.8 1460.56 Q1900.8 1457.8 1898.86 1456.07 Q1896.94 1454.33 1893.84 1454.33 Q1891.64 1454.33 1889.18 1455.09 Q1886.75 1455.86 1883.98 1457.41 L1883.98 1452.69 Q1886.8 1451.55 1889.25 1450.97 Q1891.71 1450.39 1893.74 1450.39 Q1899.11 1450.39 1902.31 1453.08 Q1905.5 1455.77 1905.5 1460.26 Q1905.5 1462.39 1904.69 1464.31 Q1903.91 1466.2 1901.8 1468.8 Q1901.22 1469.47 1898.12 1472.69 Q1895.02 1475.88 1889.37 1481.64 Z" fill="#000000" fill-rule="nonzero" fill-opacity="1" /><path clip-path="url(#clip720)" d="M1925.5 1454.1 Q1921.89 1454.1 1920.06 1457.66 Q1918.26 1461.2 1918.26 1468.33 Q1918.26 1475.44 1920.06 1479.01 Q1921.89 1482.55 1925.5 1482.55 Q1929.14 1482.55 1930.94 1479.01 Q1932.77 1475.44 1932.77 1468.33 Q1932.77 1461.2 1930.94 1457.66 Q1929.14 1454.1 1925.5 1454.1 M1925.5 1450.39 Q1931.31 1450.39 1934.37 1455 Q1937.45 1459.58 1937.45 1468.33 Q1937.45 1477.06 1934.37 1481.67 Q1931.31 1486.25 1925.5 1486.25 Q1919.69 1486.25 1916.61 1481.67 Q1913.56 1477.06 1913.56 1468.33 Q1913.56 1459.58 1916.61 1455 Q1919.69 1450.39 1925.5 1450.39 Z" fill="#000000" fill-rule="nonzero" fill-opacity="1" /><path clip-path="url(#clip720)" d="M1587.81 1537.04 Q1582.98 1537.04 1580.37 1540.54 Q1577.63 1544.2 1577.63 1550.25 Q1577.63 1556.65 1580.33 1560.34 Q1583.07 1564 1587.81 1564 Q1592.49 1564 1595.23 1560.31 Q1597.97 1556.62 1597.97 1550.25 Q1597.97 1544.43 1595.23 1540.54 Q1592.72 1537.04 1587.81 1537.04 M1587.81 1532.4 L1607.26 1532.4 L1607.26 1538.25 L1600.71 1538.25 Q1604.17 1543.22 1604.17 1550.25 Q1604.17 1559 1599.81 1563.97 Q1595.45 1568.97 1587.81 1568.97 Q1580.14 1568.97 1575.82 1563.97 Q1571.45 1559 1571.45 1550.25 Q1571.45 1541.44 1575.82 1536.5 Q1579.41 1532.4 1587.81 1532.4 Z" fill="#000000" fill-rule="nonzero" fill-opacity="1" /><path clip-path="url(#clip720)" d="M1617.7 1564.42 L1631.2 1564.42 L1631.2 1568.04 L1612.16 1568.04 L1612.16 1564.54 Q1613.25 1563.56 1615.25 1561.77 Q1626.2 1552.07 1626.2 1549.07 Q1626.2 1546.97 1624.54 1545.7 Q1622.89 1544.4 1620.18 1544.4 Q1618.53 1544.4 1616.59 1544.97 Q1614.65 1545.51 1612.35 1546.62 L1612.35 1542.71 Q1614.81 1541.82 1616.91 1541.37 Q1619.04 1540.93 1620.85 1540.93 Q1625.47 1540.93 1628.24 1543.03 Q1631.01 1545.13 1631.01 1548.56 Q1631.01 1552.99 1620.47 1562.03 Q1618.69 1563.56 1617.7 1564.42 Z" fill="#000000" fill-rule="nonzero" fill-opacity="1" /><path clip-path="url(#clip720)" d="M1662.93 1538.44 L1703.73 1538.44 L1703.73 1543.79 L1662.93 1543.79 L1662.93 1538.44 M1662.93 1551.43 L1703.73 1551.43 L1703.73 1556.84 L1662.93 1556.84 L1662.93 1551.43 Z" fill="#000000" fill-rule="nonzero" fill-opacity="1" /><path clip-path="url(#clip720)" d="M1765.26 1539.24 Q1767.45 1535.29 1770.51 1533.41 Q1773.57 1531.54 1777.7 1531.54 Q1783.27 1531.54 1786.3 1535.45 Q1789.32 1539.33 1789.32 1546.53 L1789.32 1568.04 L1783.43 1568.04 L1783.43 1546.72 Q1783.43 1541.59 1781.62 1539.11 Q1779.8 1536.63 1776.08 1536.63 Q1771.53 1536.63 1768.89 1539.65 Q1766.25 1542.68 1766.25 1547.9 L1766.25 1568.04 L1760.36 1568.04 L1760.36 1546.72 Q1760.36 1541.56 1758.54 1539.11 Q1756.73 1536.63 1752.94 1536.63 Q1748.45 1536.63 1745.81 1539.68 Q1743.17 1542.71 1743.17 1547.9 L1743.17 1568.04 L1737.28 1568.04 L1737.28 1532.4 L1743.17 1532.4 L1743.17 1537.93 Q1745.17 1534.66 1747.98 1533.1 Q1750.78 1531.54 1754.63 1531.54 Q1758.51 1531.54 1761.22 1533.51 Q1763.95 1535.48 1765.26 1539.24 Z" fill="#000000" fill-rule="nonzero" fill-opacity="1" /><path clip-path="url(#clip720)" d="M1803.39 1543.15 L1816.88 1543.15 L1816.88 1546.78 L1797.85 1546.78 L1797.85 1543.28 Q1798.93 1542.29 1800.94 1540.51 Q1811.89 1530.8 1811.89 1527.81 Q1811.89 1525.71 1810.23 1524.44 Q1808.58 1523.13 1805.87 1523.13 Q1804.22 1523.13 1802.28 1523.71 Q1800.33 1524.25 1798.04 1525.36 L1798.04 1521.45 Q1800.49 1520.56 1802.59 1520.11 Q1804.73 1519.66 1806.54 1519.66 Q1811.16 1519.66 1813.92 1521.77 Q1816.69 1523.87 1816.69 1527.3 Q1816.69 1531.73 1806.16 1540.77 Q1804.38 1542.29 1803.39 1543.15 Z" fill="#000000" fill-rule="nonzero" fill-opacity="1" /><path clip-path="url(#clip720)" d="M1841.2 1518.58 Q1836.94 1525.9 1834.87 1533.06 Q1832.8 1540.23 1832.8 1547.58 Q1832.8 1554.93 1834.87 1562.16 Q1836.97 1569.35 1841.2 1576.64 L1836.11 1576.64 Q1831.33 1569.16 1828.95 1561.93 Q1826.59 1554.71 1826.59 1547.58 Q1826.59 1540.48 1828.95 1533.29 Q1831.3 1526.09 1836.11 1518.58 L1841.2 1518.58 Z" fill="#000000" fill-rule="nonzero" fill-opacity="1" /><path clip-path="url(#clip720)" d="M1852.82 1520.52 L1859.25 1520.52 L1859.25 1564.73 Q1859.25 1573.33 1855.97 1577.21 Q1852.72 1581.09 1845.5 1581.09 L1843.05 1581.09 L1843.05 1575.68 L1845.05 1575.68 Q1849.32 1575.68 1851.07 1573.3 Q1852.82 1570.91 1852.82 1564.73 L1852.82 1520.52 Z" fill="#000000" fill-rule="nonzero" fill-opacity="1" /><path clip-path="url(#clip720)" d="M1882.2 1520.52 L1887.61 1520.52 L1871.06 1574.09 L1865.65 1574.09 L1882.2 1520.52 Z" fill="#000000" fill-rule="nonzero" fill-opacity="1" /><path clip-path="url(#clip720)" d="M1906.1 1568.84 Q1898.75 1567.66 1895.34 1564.57 Q1891.17 1560.79 1891.17 1553.05 L1891.17 1532.4 L1897.09 1532.4 L1897.09 1552.83 Q1897.09 1558.65 1899.8 1561.07 Q1902.15 1563.17 1906.1 1563.62 L1906.1 1532.4 L1911.92 1532.4 L1911.92 1563.59 Q1916.09 1563.14 1918.23 1561.04 Q1920.93 1558.37 1920.93 1552.8 L1920.93 1532.4 L1926.85 1532.4 L1926.85 1553.02 Q1926.85 1561.04 1922.68 1564.54 Q1918.93 1567.69 1911.92 1568.81 L1911.92 1581.6 L1906.1 1581.6 L1906.1 1568.84 Z" fill="#000000" fill-rule="nonzero" fill-opacity="1" /><path clip-path="url(#clip720)" d="M1957.73 1520.52 L1964.16 1520.52 L1964.16 1540.61 L1985.48 1520.52 L1993.76 1520.52 L1970.17 1542.68 L1995.44 1568.04 L1986.98 1568.04 L1964.16 1545.16 L1964.16 1568.04 L1957.73 1568.04 L1957.73 1520.52 Z" fill="#000000" fill-rule="nonzero" fill-opacity="1" /><path clip-path="url(#clip720)" d="M1999.29 1518.58 L2004.39 1518.58 Q2009.16 1526.09 2011.52 1533.29 Q2013.9 1540.48 2013.9 1547.58 Q2013.9 1554.71 2011.52 1561.93 Q2009.16 1569.16 2004.39 1576.64 L1999.29 1576.64 Q2003.53 1569.35 2005.6 1562.16 Q2007.7 1554.93 2007.7 1547.58 Q2007.7 1540.23 2005.6 1533.06 Q2003.53 1525.9 1999.29 1518.58 Z" fill="#000000" fill-rule="nonzero" fill-opacity="1" /><path clip-path="url(#clip720)" d="M2045.83 1518.52 L2059.32 1518.52 L2059.32 1523.07 L2051.68 1523.07 L2051.68 1572.09 L2059.32 1572.09 L2059.32 1576.64 L2045.83 1576.64 L2045.83 1518.52 Z" fill="#000000" fill-rule="nonzero" fill-opacity="1" /><path clip-path="url(#clip720)" d="M2104.46 1561.26 L2104.46 1548.5 L2093.95 1548.5 L2093.95 1543.22 L2110.82 1543.22 L2110.82 1563.62 Q2107.1 1566.26 2102.61 1567.63 Q2098.12 1568.97 2093.03 1568.97 Q2081.89 1568.97 2075.59 1562.47 Q2069.32 1555.95 2069.32 1544.33 Q2069.32 1532.68 2075.59 1526.19 Q2081.89 1519.66 2093.03 1519.66 Q2097.68 1519.66 2101.85 1520.81 Q2106.05 1521.96 2109.58 1524.18 L2109.58 1531.03 Q2106.01 1528 2102 1526.48 Q2097.99 1524.95 2093.57 1524.95 Q2084.85 1524.95 2080.46 1529.82 Q2076.1 1534.69 2076.1 1544.33 Q2076.1 1553.94 2080.46 1558.81 Q2084.85 1563.68 2093.57 1563.68 Q2096.98 1563.68 2099.65 1563.11 Q2102.32 1562.51 2104.46 1561.26 Z" fill="#000000" fill-rule="nonzero" fill-opacity="1" /><path clip-path="url(#clip720)" d="M2152.8 1548.76 L2152.8 1551.62 L2125.88 1551.62 Q2126.26 1557.67 2129.5 1560.85 Q2132.78 1564 2138.61 1564 Q2141.98 1564 2145.13 1563.17 Q2148.32 1562.35 2151.43 1560.69 L2151.43 1566.23 Q2148.28 1567.57 2144.97 1568.27 Q2141.66 1568.97 2138.26 1568.97 Q2129.73 1568.97 2124.73 1564 Q2119.76 1559.04 2119.76 1550.57 Q2119.76 1541.82 2124.48 1536.69 Q2129.22 1531.54 2137.24 1531.54 Q2144.43 1531.54 2148.6 1536.18 Q2152.8 1540.8 2152.8 1548.76 M2146.95 1547.04 Q2146.88 1542.23 2144.24 1539.37 Q2141.63 1536.5 2137.3 1536.5 Q2132.4 1536.5 2129.44 1539.27 Q2126.51 1542.04 2126.07 1547.07 L2146.95 1547.04 Z" fill="#000000" fill-rule="nonzero" fill-opacity="1" /><path clip-path="url(#clip720)" d="M2174.92 1568.04 L2156.78 1520.52 L2163.5 1520.52 L2178.55 1560.53 L2193.64 1520.52 L2200.32 1520.52 L2182.21 1568.04 L2174.92 1568.04 Z" fill="#000000" fill-rule="nonzero" fill-opacity="1" /><path clip-path="url(#clip720)" d="M2209.39 1543.15 L2222.89 1543.15 L2222.89 1546.78 L2203.86 1546.78 L2203.86 1543.28 Q2204.94 1542.29 2206.94 1540.51 Q2217.89 1530.8 2217.89 1527.81 Q2217.89 1525.71 2216.24 1524.44 Q2214.58 1523.13 2211.88 1523.13 Q2210.22 1523.13 2208.28 1523.71 Q2206.34 1524.25 2204.05 1525.36 L2204.05 1521.45 Q2206.5 1520.56 2208.6 1520.11 Q2210.73 1519.66 2212.55 1519.66 Q2217.16 1519.66 2219.93 1521.77 Q2222.7 1523.87 2222.7 1527.3 Q2222.7 1531.73 2212.16 1540.77 Q2210.38 1542.29 2209.39 1543.15 Z" fill="#000000" fill-rule="nonzero" fill-opacity="1" /><path clip-path="url(#clip720)" d="M2246.82 1518.52 L2246.82 1576.64 L2233.33 1576.64 L2233.33 1572.09 L2240.94 1572.09 L2240.94 1523.07 L2233.33 1523.07 L2233.33 1518.52 L2246.82 1518.52 Z" fill="#000000" fill-rule="nonzero" fill-opacity="1" /><polyline clip-path="url(#clip720)" style="stroke:#000000; stroke-linecap:round; stroke-linejoin:round; stroke-width:4; stroke-opacity:1; fill:none" points="234.125,1423.18 234.125,123.472 "/>
<polyline clip-path="url(#clip720)" style="stroke:#000000; stroke-linecap:round; stroke-linejoin:round; stroke-width:4; stroke-opacity:1; fill:none" points="2352.76,1423.18 2352.76,123.472 "/>
<polyline clip-path="url(#clip720)" style="stroke:#000000; stroke-linecap:round; stroke-linejoin:round; stroke-width:4; stroke-opacity:1; fill:none" points="234.125,1423.18 253.023,1423.18 "/>
<polyline clip-path="url(#clip720)" style="stroke:#000000; stroke-linecap:round; stroke-linejoin:round; stroke-width:4; stroke-opacity:1; fill:none" points="234.125,1112.05 253.023,1112.05 "/>
<polyline clip-path="url(#clip720)" style="stroke:#000000; stroke-linecap:round; stroke-linejoin:round; stroke-width:4; stroke-opacity:1; fill:none" points="234.125,800.924 253.023,800.924 "/>
<polyline clip-path="url(#clip720)" style="stroke:#000000; stroke-linecap:round; stroke-linejoin:round; stroke-width:4; stroke-opacity:1; fill:none" points="234.125,489.797 253.023,489.797 "/>
<polyline clip-path="url(#clip720)" style="stroke:#000000; stroke-linecap:round; stroke-linejoin:round; stroke-width:4; stroke-opacity:1; fill:none" points="234.125,178.669 253.023,178.669 "/>
<polyline clip-path="url(#clip720)" style="stroke:#000000; stroke-linecap:round; stroke-linejoin:round; stroke-width:4; stroke-opacity:1; fill:none" points="2352.76,1423.18 2333.86,1423.18 "/>
<polyline clip-path="url(#clip720)" style="stroke:#000000; stroke-linecap:round; stroke-linejoin:round; stroke-width:4; stroke-opacity:1; fill:none" points="2352.76,1112.05 2333.86,1112.05 "/>
<polyline clip-path="url(#clip720)" style="stroke:#000000; stroke-linecap:round; stroke-linejoin:round; stroke-width:4; stroke-opacity:1; fill:none" points="2352.76,800.924 2333.86,800.924 "/>
<polyline clip-path="url(#clip720)" style="stroke:#000000; stroke-linecap:round; stroke-linejoin:round; stroke-width:4; stroke-opacity:1; fill:none" points="2352.76,489.797 2333.86,489.797 "/>
<polyline clip-path="url(#clip720)" style="stroke:#000000; stroke-linecap:round; stroke-linejoin:round; stroke-width:4; stroke-opacity:1; fill:none" points="2352.76,178.669 2333.86,178.669 "/>
<polyline clip-path="url(#clip720)" style="stroke:#000000; stroke-linecap:round; stroke-linejoin:round; stroke-width:4; stroke-opacity:1; fill:none" points="234.125,1360.95 243.574,1360.95 "/>
<polyline clip-path="url(#clip720)" style="stroke:#000000; stroke-linecap:round; stroke-linejoin:round; stroke-width:4; stroke-opacity:1; fill:none" points="234.125,1298.73 243.574,1298.73 "/>
<polyline clip-path="url(#clip720)" style="stroke:#000000; stroke-linecap:round; stroke-linejoin:round; stroke-width:4; stroke-opacity:1; fill:none" points="234.125,1236.5 243.574,1236.5 "/>
<polyline clip-path="url(#clip720)" style="stroke:#000000; stroke-linecap:round; stroke-linejoin:round; stroke-width:4; stroke-opacity:1; fill:none" points="234.125,1174.28 243.574,1174.28 "/>
<polyline clip-path="url(#clip720)" style="stroke:#000000; stroke-linecap:round; stroke-linejoin:round; stroke-width:4; stroke-opacity:1; fill:none" points="234.125,1049.83 243.574,1049.83 "/>
<polyline clip-path="url(#clip720)" style="stroke:#000000; stroke-linecap:round; stroke-linejoin:round; stroke-width:4; stroke-opacity:1; fill:none" points="234.125,987.601 243.574,987.601 "/>
<polyline clip-path="url(#clip720)" style="stroke:#000000; stroke-linecap:round; stroke-linejoin:round; stroke-width:4; stroke-opacity:1; fill:none" points="234.125,925.376 243.574,925.376 "/>
<polyline clip-path="url(#clip720)" style="stroke:#000000; stroke-linecap:round; stroke-linejoin:round; stroke-width:4; stroke-opacity:1; fill:none" points="234.125,863.15 243.574,863.15 "/>
<polyline clip-path="url(#clip720)" style="stroke:#000000; stroke-linecap:round; stroke-linejoin:round; stroke-width:4; stroke-opacity:1; fill:none" points="234.125,738.699 243.574,738.699 "/>
<polyline clip-path="url(#clip720)" style="stroke:#000000; stroke-linecap:round; stroke-linejoin:round; stroke-width:4; stroke-opacity:1; fill:none" points="234.125,676.473 243.574,676.473 "/>
<polyline clip-path="url(#clip720)" style="stroke:#000000; stroke-linecap:round; stroke-linejoin:round; stroke-width:4; stroke-opacity:1; fill:none" points="234.125,614.248 243.574,614.248 "/>
<polyline clip-path="url(#clip720)" style="stroke:#000000; stroke-linecap:round; stroke-linejoin:round; stroke-width:4; stroke-opacity:1; fill:none" points="234.125,552.022 243.574,552.022 "/>
<polyline clip-path="url(#clip720)" style="stroke:#000000; stroke-linecap:round; stroke-linejoin:round; stroke-width:4; stroke-opacity:1; fill:none" points="234.125,427.571 243.574,427.571 "/>
<polyline clip-path="url(#clip720)" style="stroke:#000000; stroke-linecap:round; stroke-linejoin:round; stroke-width:4; stroke-opacity:1; fill:none" points="234.125,365.346 243.574,365.346 "/>
<polyline clip-path="url(#clip720)" style="stroke:#000000; stroke-linecap:round; stroke-linejoin:round; stroke-width:4; stroke-opacity:1; fill:none" points="234.125,303.12 243.574,303.12 "/>
<polyline clip-path="url(#clip720)" style="stroke:#000000; stroke-linecap:round; stroke-linejoin:round; stroke-width:4; stroke-opacity:1; fill:none" points="234.125,240.895 243.574,240.895 "/>
<polyline clip-path="url(#clip720)" style="stroke:#000000; stroke-linecap:round; stroke-linejoin:round; stroke-width:4; stroke-opacity:1; fill:none" points="2352.76,1360.95 2343.31,1360.95 "/>
<polyline clip-path="url(#clip720)" style="stroke:#000000; stroke-linecap:round; stroke-linejoin:round; stroke-width:4; stroke-opacity:1; fill:none" points="2352.76,1298.73 2343.31,1298.73 "/>
<polyline clip-path="url(#clip720)" style="stroke:#000000; stroke-linecap:round; stroke-linejoin:round; stroke-width:4; stroke-opacity:1; fill:none" points="2352.76,1236.5 2343.31,1236.5 "/>
<polyline clip-path="url(#clip720)" style="stroke:#000000; stroke-linecap:round; stroke-linejoin:round; stroke-width:4; stroke-opacity:1; fill:none" points="2352.76,1174.28 2343.31,1174.28 "/>
<polyline clip-path="url(#clip720)" style="stroke:#000000; stroke-linecap:round; stroke-linejoin:round; stroke-width:4; stroke-opacity:1; fill:none" points="2352.76,1049.83 2343.31,1049.83 "/>
<polyline clip-path="url(#clip720)" style="stroke:#000000; stroke-linecap:round; stroke-linejoin:round; stroke-width:4; stroke-opacity:1; fill:none" points="2352.76,987.601 2343.31,987.601 "/>
<polyline clip-path="url(#clip720)" style="stroke:#000000; stroke-linecap:round; stroke-linejoin:round; stroke-width:4; stroke-opacity:1; fill:none" points="2352.76,925.376 2343.31,925.376 "/>
<polyline clip-path="url(#clip720)" style="stroke:#000000; stroke-linecap:round; stroke-linejoin:round; stroke-width:4; stroke-opacity:1; fill:none" points="2352.76,863.15 2343.31,863.15 "/>
<polyline clip-path="url(#clip720)" style="stroke:#000000; stroke-linecap:round; stroke-linejoin:round; stroke-width:4; stroke-opacity:1; fill:none" points="2352.76,738.699 2343.31,738.699 "/>
<polyline clip-path="url(#clip720)" style="stroke:#000000; stroke-linecap:round; stroke-linejoin:round; stroke-width:4; stroke-opacity:1; fill:none" points="2352.76,676.473 2343.31,676.473 "/>
<polyline clip-path="url(#clip720)" style="stroke:#000000; stroke-linecap:round; stroke-linejoin:round; stroke-width:4; stroke-opacity:1; fill:none" points="2352.76,614.248 2343.31,614.248 "/>
<polyline clip-path="url(#clip720)" style="stroke:#000000; stroke-linecap:round; stroke-linejoin:round; stroke-width:4; stroke-opacity:1; fill:none" points="2352.76,552.022 2343.31,552.022 "/>
<polyline clip-path="url(#clip720)" style="stroke:#000000; stroke-linecap:round; stroke-linejoin:round; stroke-width:4; stroke-opacity:1; fill:none" points="2352.76,427.571 2343.31,427.571 "/>
<polyline clip-path="url(#clip720)" style="stroke:#000000; stroke-linecap:round; stroke-linejoin:round; stroke-width:4; stroke-opacity:1; fill:none" points="2352.76,365.346 2343.31,365.346 "/>
<polyline clip-path="url(#clip720)" style="stroke:#000000; stroke-linecap:round; stroke-linejoin:round; stroke-width:4; stroke-opacity:1; fill:none" points="2352.76,303.12 2343.31,303.12 "/>
<polyline clip-path="url(#clip720)" style="stroke:#000000; stroke-linecap:round; stroke-linejoin:round; stroke-width:4; stroke-opacity:1; fill:none" points="2352.76,240.895 2343.31,240.895 "/>
<path clip-path="url(#clip720)" d="M186.181 1408.98 Q182.57 1408.98 180.741 1412.54 Q178.936 1416.08 178.936 1423.21 Q178.936 1430.32 180.741 1433.89 Q182.57 1437.43 186.181 1437.43 Q189.815 1437.43 191.621 1433.89 Q193.45 1430.32 193.45 1423.21 Q193.45 1416.08 191.621 1412.54 Q189.815 1408.98 186.181 1408.98 M186.181 1405.27 Q191.991 1405.27 195.047 1409.88 Q198.125 1414.46 198.125 1423.21 Q198.125 1431.94 195.047 1436.55 Q191.991 1441.13 186.181 1441.13 Q180.371 1441.13 177.292 1436.55 Q174.237 1431.94 174.237 1423.21 Q174.237 1414.46 177.292 1409.88 Q180.371 1405.27 186.181 1405.27 Z" fill="#000000" fill-rule="nonzero" fill-opacity="1" /><path clip-path="url(#clip720)" d="M146.066 1094.77 L164.422 1094.77 L164.422 1098.71 L150.348 1098.71 L150.348 1107.18 Q151.366 1106.83 152.385 1106.67 Q153.403 1106.49 154.422 1106.49 Q160.209 1106.49 163.589 1109.66 Q166.968 1112.83 166.968 1118.24 Q166.968 1123.82 163.496 1126.92 Q160.024 1130 153.704 1130 Q151.528 1130 149.26 1129.63 Q147.015 1129.26 144.607 1128.52 L144.607 1123.82 Q146.691 1124.96 148.913 1125.51 Q151.135 1126.07 153.612 1126.07 Q157.616 1126.07 159.954 1123.96 Q162.292 1121.86 162.292 1118.24 Q162.292 1114.63 159.954 1112.53 Q157.616 1110.42 153.612 1110.42 Q151.737 1110.42 149.862 1110.84 Q148.01 1111.25 146.066 1112.13 L146.066 1094.77 Z" fill="#000000" fill-rule="nonzero" fill-opacity="1" /><path clip-path="url(#clip720)" d="M186.181 1097.85 Q182.57 1097.85 180.741 1101.42 Q178.936 1104.96 178.936 1112.09 Q178.936 1119.19 180.741 1122.76 Q182.57 1126.3 186.181 1126.3 Q189.815 1126.3 191.621 1122.76 Q193.45 1119.19 193.45 1112.09 Q193.45 1104.96 191.621 1101.42 Q189.815 1097.85 186.181 1097.85 M186.181 1094.15 Q191.991 1094.15 195.047 1098.75 Q198.125 1103.34 198.125 1112.09 Q198.125 1120.81 195.047 1125.42 Q191.991 1130 186.181 1130 Q180.371 1130 177.292 1125.42 Q174.237 1120.81 174.237 1112.09 Q174.237 1103.34 177.292 1098.75 Q180.371 1094.15 186.181 1094.15 Z" fill="#000000" fill-rule="nonzero" fill-opacity="1" /><path clip-path="url(#clip720)" d="M116.668 814.269 L124.306 814.269 L124.306 787.904 L115.996 789.57 L115.996 785.311 L124.26 783.644 L128.936 783.644 L128.936 814.269 L136.575 814.269 L136.575 818.204 L116.668 818.204 L116.668 814.269 Z" fill="#000000" fill-rule="nonzero" fill-opacity="1" /><path clip-path="url(#clip720)" d="M156.019 786.723 Q152.408 786.723 150.579 790.288 Q148.774 793.83 148.774 800.959 Q148.774 808.066 150.579 811.63 Q152.408 815.172 156.019 815.172 Q159.653 815.172 161.459 811.63 Q163.288 808.066 163.288 800.959 Q163.288 793.83 161.459 790.288 Q159.653 786.723 156.019 786.723 M156.019 783.019 Q161.829 783.019 164.885 787.626 Q167.964 792.209 167.964 800.959 Q167.964 809.686 164.885 814.292 Q161.829 818.876 156.019 818.876 Q150.209 818.876 147.13 814.292 Q144.075 809.686 144.075 800.959 Q144.075 792.209 147.13 787.626 Q150.209 783.019 156.019 783.019 Z" fill="#000000" fill-rule="nonzero" fill-opacity="1" /><path clip-path="url(#clip720)" d="M186.181 786.723 Q182.57 786.723 180.741 790.288 Q178.936 793.83 178.936 800.959 Q178.936 808.066 180.741 811.63 Q182.57 815.172 186.181 815.172 Q189.815 815.172 191.621 811.63 Q193.45 808.066 193.45 800.959 Q193.45 793.83 191.621 790.288 Q189.815 786.723 186.181 786.723 M186.181 783.019 Q191.991 783.019 195.047 787.626 Q198.125 792.209 198.125 800.959 Q198.125 809.686 195.047 814.292 Q191.991 818.876 186.181 818.876 Q180.371 818.876 177.292 814.292 Q174.237 809.686 174.237 800.959 Q174.237 792.209 177.292 787.626 Q180.371 783.019 186.181 783.019 Z" fill="#000000" fill-rule="nonzero" fill-opacity="1" /><path clip-path="url(#clip720)" d="M116.668 503.142 L124.306 503.142 L124.306 476.776 L115.996 478.443 L115.996 474.183 L124.26 472.517 L128.936 472.517 L128.936 503.142 L136.575 503.142 L136.575 507.077 L116.668 507.077 L116.668 503.142 Z" fill="#000000" fill-rule="nonzero" fill-opacity="1" /><path clip-path="url(#clip720)" d="M146.066 472.517 L164.422 472.517 L164.422 476.452 L150.348 476.452 L150.348 484.924 Q151.366 484.577 152.385 484.415 Q153.403 484.23 154.422 484.23 Q160.209 484.23 163.589 487.401 Q166.968 490.572 166.968 495.989 Q166.968 501.568 163.496 504.669 Q160.024 507.748 153.704 507.748 Q151.528 507.748 149.26 507.378 Q147.015 507.007 144.607 506.267 L144.607 501.568 Q146.691 502.702 148.913 503.257 Q151.135 503.813 153.612 503.813 Q157.616 503.813 159.954 501.706 Q162.292 499.6 162.292 495.989 Q162.292 492.378 159.954 490.271 Q157.616 488.165 153.612 488.165 Q151.737 488.165 149.862 488.581 Q148.01 488.998 146.066 489.878 L146.066 472.517 Z" fill="#000000" fill-rule="nonzero" fill-opacity="1" /><path clip-path="url(#clip720)" d="M186.181 475.595 Q182.57 475.595 180.741 479.16 Q178.936 482.702 178.936 489.831 Q178.936 496.938 180.741 500.503 Q182.57 504.044 186.181 504.044 Q189.815 504.044 191.621 500.503 Q193.45 496.938 193.45 489.831 Q193.45 482.702 191.621 479.16 Q189.815 475.595 186.181 475.595 M186.181 471.892 Q191.991 471.892 195.047 476.498 Q198.125 481.082 198.125 489.831 Q198.125 498.558 195.047 503.165 Q191.991 507.748 186.181 507.748 Q180.371 507.748 177.292 503.165 Q174.237 498.558 174.237 489.831 Q174.237 481.082 177.292 476.498 Q180.371 471.892 186.181 471.892 Z" fill="#000000" fill-rule="nonzero" fill-opacity="1" /><path clip-path="url(#clip720)" d="M119.885 192.014 L136.204 192.014 L136.204 195.949 L114.26 195.949 L114.26 192.014 Q116.922 189.259 121.505 184.63 Q126.112 179.977 127.292 178.634 Q129.538 176.111 130.417 174.375 Q131.32 172.616 131.32 170.926 Q131.32 168.171 129.376 166.435 Q127.455 164.699 124.353 164.699 Q122.154 164.699 119.7 165.463 Q117.269 166.227 114.492 167.778 L114.492 163.056 Q117.316 161.921 119.769 161.343 Q122.223 160.764 124.26 160.764 Q129.63 160.764 132.825 163.449 Q136.019 166.134 136.019 170.625 Q136.019 172.755 135.209 174.676 Q134.422 176.574 132.316 179.167 Q131.737 179.838 128.635 183.056 Q125.533 186.25 119.885 192.014 Z" fill="#000000" fill-rule="nonzero" fill-opacity="1" /><path clip-path="url(#clip720)" d="M156.019 164.468 Q152.408 164.468 150.579 168.033 Q148.774 171.574 148.774 178.704 Q148.774 185.81 150.579 189.375 Q152.408 192.917 156.019 192.917 Q159.653 192.917 161.459 189.375 Q163.288 185.81 163.288 178.704 Q163.288 171.574 161.459 168.033 Q159.653 164.468 156.019 164.468 M156.019 160.764 Q161.829 160.764 164.885 165.371 Q167.964 169.954 167.964 178.704 Q167.964 187.431 164.885 192.037 Q161.829 196.62 156.019 196.62 Q150.209 196.62 147.13 192.037 Q144.075 187.431 144.075 178.704 Q144.075 169.954 147.13 165.371 Q150.209 160.764 156.019 160.764 Z" fill="#000000" fill-rule="nonzero" fill-opacity="1" /><path clip-path="url(#clip720)" d="M186.181 164.468 Q182.57 164.468 180.741 168.033 Q178.936 171.574 178.936 178.704 Q178.936 185.81 180.741 189.375 Q182.57 192.917 186.181 192.917 Q189.815 192.917 191.621 189.375 Q193.45 185.81 193.45 178.704 Q193.45 171.574 191.621 168.033 Q189.815 164.468 186.181 164.468 M186.181 160.764 Q191.991 160.764 195.047 165.371 Q198.125 169.954 198.125 178.704 Q198.125 187.431 195.047 192.037 Q191.991 196.62 186.181 196.62 Q180.371 196.62 177.292 192.037 Q174.237 187.431 174.237 178.704 Q174.237 169.954 177.292 165.371 Q180.371 160.764 186.181 160.764 Z" fill="#000000" fill-rule="nonzero" fill-opacity="1" /><path clip-path="url(#clip720)" d="M16.4842 825.919 L16.4842 819.49 L64.0042 819.49 L64.0042 825.919 L16.4842 825.919 Z" fill="#000000" fill-rule="nonzero" fill-opacity="1" /><path clip-path="url(#clip720)" d="M42.4881 777.317 L64.0042 777.317 L64.0042 783.174 L42.679 783.174 Q37.6183 783.174 35.1038 785.147 Q32.5894 787.12 32.5894 791.067 Q32.5894 795.81 35.6131 798.547 Q38.6368 801.284 43.8567 801.284 L64.0042 801.284 L64.0042 807.172 L28.3562 807.172 L28.3562 801.284 L33.8944 801.284 Q30.6797 799.183 29.0883 796.351 Q27.4968 793.486 27.4968 789.762 Q27.4968 783.619 31.3163 780.468 Q35.1038 777.317 42.4881 777.317 Z" fill="#000000" fill-rule="nonzero" fill-opacity="1" /><path clip-path="url(#clip720)" d="M18.2347 759.843 L28.3562 759.843 L28.3562 747.78 L32.9077 747.78 L32.9077 759.843 L52.2594 759.843 Q56.6199 759.843 57.8613 758.666 Q59.1026 757.456 59.1026 753.796 L59.1026 747.78 L64.0042 747.78 L64.0042 753.796 Q64.0042 760.575 61.4897 763.154 Q58.9434 765.732 52.2594 765.732 L32.9077 765.732 L32.9077 770.028 L28.3562 770.028 L28.3562 765.732 L18.2347 765.732 L18.2347 759.843 Z" fill="#000000" fill-rule="nonzero" fill-opacity="1" /><path clip-path="url(#clip720)" d="M44.7161 709.586 L47.5806 709.586 L47.5806 736.513 Q53.6281 736.131 56.8109 732.885 Q59.9619 729.606 59.9619 723.782 Q59.9619 720.408 59.1344 717.257 Q58.3069 714.074 56.6518 710.955 L62.1899 710.955 Q63.5267 714.106 64.227 717.416 Q64.9272 720.726 64.9272 724.132 Q64.9272 732.662 59.9619 737.659 Q54.9967 742.624 46.5303 742.624 Q37.7774 742.624 32.6531 737.913 Q27.4968 733.171 27.4968 725.15 Q27.4968 717.957 32.1438 713.787 Q36.7589 709.586 44.7161 709.586 M42.9973 715.443 Q38.1912 715.506 35.3266 718.148 Q32.4621 720.758 32.4621 725.087 Q32.4621 729.988 35.2312 732.948 Q38.0002 735.876 43.0292 736.322 L42.9973 715.443 Z" fill="#000000" fill-rule="nonzero" fill-opacity="1" /><path clip-path="url(#clip720)" d="M45.7664 676.516 Q39.4007 676.516 35.8996 679.158 Q32.3984 681.768 32.3984 686.51 Q32.3984 691.221 35.8996 693.863 Q39.4007 696.473 45.7664 696.473 Q52.1003 696.473 55.6014 693.863 Q59.1026 691.221 59.1026 686.51 Q59.1026 681.768 55.6014 679.158 Q52.1003 676.516 45.7664 676.516 M59.58 670.66 Q68.683 670.66 73.1071 674.702 Q77.5631 678.744 77.5631 687.083 Q77.5631 690.171 77.0857 692.908 Q76.6401 695.645 75.6852 698.223 L69.9879 698.223 Q71.3884 695.645 72.0568 693.131 Q72.7252 690.616 72.7252 688.006 Q72.7252 682.245 69.7015 679.381 Q66.7096 676.516 60.6303 676.516 L57.7339 676.516 Q60.885 678.33 62.4446 681.163 Q64.0042 683.996 64.0042 687.943 Q64.0042 694.499 59.0071 698.51 Q54.01 702.52 45.7664 702.52 Q37.491 702.52 32.4939 698.51 Q27.4968 694.499 27.4968 687.943 Q27.4968 683.996 29.0564 681.163 Q30.616 678.33 33.7671 676.516 L28.3562 676.516 L28.3562 670.66 L59.58 670.66 Z" fill="#000000" fill-rule="nonzero" fill-opacity="1" /><path clip-path="url(#clip720)" d="M33.8307 637.94 Q33.2578 638.927 33.0032 640.104 Q32.7167 641.25 32.7167 642.651 Q32.7167 647.616 35.9632 650.29 Q39.1779 652.931 45.2253 652.931 L64.0042 652.931 L64.0042 658.82 L28.3562 658.82 L28.3562 652.931 L33.8944 652.931 Q30.6479 651.085 29.0883 648.125 Q27.4968 645.165 27.4968 640.932 Q27.4968 640.327 27.5923 639.595 Q27.656 638.863 27.8151 637.972 L33.8307 637.94 Z" fill="#000000" fill-rule="nonzero" fill-opacity="1" /><path clip-path="url(#clip720)" d="M46.0847 615.596 Q46.0847 622.694 47.7079 625.431 Q49.3312 628.169 53.2461 628.169 Q56.3653 628.169 58.2114 626.132 Q60.0256 624.063 60.0256 620.53 Q60.0256 615.66 56.5881 612.732 Q53.1188 609.772 47.3897 609.772 L46.0847 609.772 L46.0847 615.596 M43.6657 603.915 L64.0042 603.915 L64.0042 609.772 L58.5933 609.772 Q61.8398 611.777 63.3994 614.769 Q64.9272 617.761 64.9272 622.089 Q64.9272 627.564 61.8716 630.81 Q58.7843 634.025 53.6281 634.025 Q47.6125 634.025 44.5569 630.015 Q41.5014 625.973 41.5014 617.984 L41.5014 609.772 L40.9285 609.772 Q36.8862 609.772 34.6901 612.445 Q32.4621 615.087 32.4621 619.893 Q32.4621 622.949 33.1941 625.845 Q33.9262 628.742 35.3903 631.415 L29.9795 631.415 Q28.7381 628.201 28.1334 625.177 Q27.4968 622.153 27.4968 619.289 Q27.4968 611.554 31.5072 607.735 Q35.5176 603.915 43.6657 603.915 Z" fill="#000000" fill-rule="nonzero" fill-opacity="1" /><path clip-path="url(#clip720)" d="M18.2347 586.06 L28.3562 586.06 L28.3562 573.997 L32.9077 573.997 L32.9077 586.06 L52.2594 586.06 Q56.6199 586.06 57.8613 584.882 Q59.1026 583.672 59.1026 580.012 L59.1026 573.997 L64.0042 573.997 L64.0042 580.012 Q64.0042 586.792 61.4897 589.37 Q58.9434 591.948 52.2594 591.948 L32.9077 591.948 L32.9077 596.245 L28.3562 596.245 L28.3562 591.948 L18.2347 591.948 L18.2347 586.06 Z" fill="#000000" fill-rule="nonzero" fill-opacity="1" /><path clip-path="url(#clip720)" d="M44.7161 535.802 L47.5806 535.802 L47.5806 562.729 Q53.6281 562.347 56.8109 559.101 Q59.9619 555.822 59.9619 549.998 Q59.9619 546.624 59.1344 543.473 Q58.3069 540.29 56.6518 537.171 L62.1899 537.171 Q63.5267 540.322 64.227 543.632 Q64.9272 546.942 64.9272 550.348 Q64.9272 558.878 59.9619 563.875 Q54.9967 568.84 46.5303 568.84 Q37.7774 568.84 32.6531 564.13 Q27.4968 559.387 27.4968 551.366 Q27.4968 544.173 32.1438 540.004 Q36.7589 535.802 44.7161 535.802 M42.9973 541.659 Q38.1912 541.722 35.3266 544.364 Q32.4621 546.974 32.4621 551.303 Q32.4621 556.204 35.2312 559.164 Q38.0002 562.093 43.0292 562.538 L42.9973 541.659 Z" fill="#000000" fill-rule="nonzero" fill-opacity="1" /><path clip-path="url(#clip720)" d="M33.7671 502.732 L14.479 502.732 L14.479 496.876 L64.0042 496.876 L64.0042 502.732 L58.657 502.732 Q61.8398 504.579 63.3994 507.411 Q64.9272 510.212 64.9272 514.159 Q64.9272 520.62 59.771 524.694 Q54.6147 528.736 46.212 528.736 Q37.8093 528.736 32.6531 524.694 Q27.4968 520.62 27.4968 514.159 Q27.4968 510.212 29.0564 507.411 Q30.5842 504.579 33.7671 502.732 M46.212 522.689 Q52.6732 522.689 56.3653 520.047 Q60.0256 517.374 60.0256 512.727 Q60.0256 508.08 56.3653 505.406 Q52.6732 502.732 46.212 502.732 Q39.7508 502.732 36.0905 505.406 Q32.3984 508.08 32.3984 512.727 Q32.3984 517.374 36.0905 520.047 Q39.7508 522.689 46.212 522.689 Z" fill="#000000" fill-rule="nonzero" fill-opacity="1" /><path clip-path="url(#clip720)" d="M16.4842 463.838 L16.4842 457.409 L64.0042 457.409 L64.0042 463.838 L16.4842 463.838 Z" fill="#000000" fill-rule="nonzero" fill-opacity="1" /><path clip-path="url(#clip720)" d="M42.4881 415.236 L64.0042 415.236 L64.0042 421.092 L42.679 421.092 Q37.6183 421.092 35.1038 423.066 Q32.5894 425.039 32.5894 428.986 Q32.5894 433.728 35.6131 436.465 Q38.6368 439.203 43.8567 439.203 L64.0042 439.203 L64.0042 445.091 L28.3562 445.091 L28.3562 439.203 L33.8944 439.203 Q30.6797 437.102 29.0883 434.269 Q27.4968 431.405 27.4968 427.681 Q27.4968 421.538 31.3163 418.387 Q35.1038 415.236 42.4881 415.236 Z" fill="#000000" fill-rule="nonzero" fill-opacity="1" /><path clip-path="url(#clip720)" d="M18.2347 397.762 L28.3562 397.762 L28.3562 385.699 L32.9077 385.699 L32.9077 397.762 L52.2594 397.762 Q56.6199 397.762 57.8613 396.584 Q59.1026 395.375 59.1026 391.715 L59.1026 385.699 L64.0042 385.699 L64.0042 391.715 Q64.0042 398.494 61.4897 401.072 Q58.9434 403.65 52.2594 403.65 L32.9077 403.65 L32.9077 407.947 L28.3562 407.947 L28.3562 403.65 L18.2347 403.65 L18.2347 397.762 Z" fill="#000000" fill-rule="nonzero" fill-opacity="1" /><path clip-path="url(#clip720)" d="M44.7161 347.505 L47.5806 347.505 L47.5806 374.432 Q53.6281 374.05 56.8109 370.803 Q59.9619 367.525 59.9619 361.7 Q59.9619 358.326 59.1344 355.175 Q58.3069 351.993 56.6518 348.873 L62.1899 348.873 Q63.5267 352.024 64.227 355.335 Q64.9272 358.645 64.9272 362.05 Q64.9272 370.58 59.9619 375.577 Q54.9967 380.543 46.5303 380.543 Q37.7774 380.543 32.6531 375.832 Q27.4968 371.09 27.4968 363.069 Q27.4968 355.876 32.1438 351.706 Q36.7589 347.505 44.7161 347.505 M42.9973 353.361 Q38.1912 353.425 35.3266 356.067 Q32.4621 358.677 32.4621 363.005 Q32.4621 367.907 35.2312 370.867 Q38.0002 373.795 43.0292 374.241 L42.9973 353.361 Z" fill="#000000" fill-rule="nonzero" fill-opacity="1" /><path clip-path="url(#clip720)" d="M42.4881 308.26 L64.0042 308.26 L64.0042 314.117 L42.679 314.117 Q37.6183 314.117 35.1038 316.09 Q32.5894 318.063 32.5894 322.01 Q32.5894 326.752 35.6131 329.49 Q38.6368 332.227 43.8567 332.227 L64.0042 332.227 L64.0042 338.115 L28.3562 338.115 L28.3562 332.227 L33.8944 332.227 Q30.6797 330.126 29.0883 327.294 Q27.4968 324.429 27.4968 320.705 Q27.4968 314.562 31.3163 311.411 Q35.1038 308.26 42.4881 308.26 Z" fill="#000000" fill-rule="nonzero" fill-opacity="1" /><path clip-path="url(#clip720)" d="M29.4065 273.853 L34.9447 273.853 Q33.6716 276.336 33.035 279.01 Q32.3984 281.683 32.3984 284.548 Q32.3984 288.908 33.7352 291.105 Q35.072 293.269 37.7456 293.269 Q39.7826 293.269 40.9603 291.709 Q42.1061 290.15 43.1565 285.439 L43.6021 283.434 Q44.9389 277.195 47.3897 274.586 Q49.8086 271.944 54.1691 271.944 Q59.1344 271.944 62.0308 275.89 Q64.9272 279.805 64.9272 286.68 Q64.9272 289.545 64.3543 292.664 Q63.8132 295.751 62.6992 299.189 L56.6518 299.189 Q58.3387 295.942 59.198 292.791 Q60.0256 289.64 60.0256 286.553 Q60.0256 282.415 58.6251 280.187 Q57.1929 277.959 54.6147 277.959 Q52.2276 277.959 50.9545 279.583 Q49.6813 281.174 48.5037 286.617 L48.0262 288.654 Q46.8804 294.096 44.5251 296.515 Q42.138 298.934 38.0002 298.934 Q32.9713 298.934 30.2341 295.37 Q27.4968 291.805 27.4968 285.248 Q27.4968 282.002 27.9743 279.137 Q28.4517 276.272 29.4065 273.853 Z" fill="#000000" fill-rule="nonzero" fill-opacity="1" /><path clip-path="url(#clip720)" d="M28.3562 262.618 L28.3562 256.762 L64.0042 256.762 L64.0042 262.618 L28.3562 262.618 M14.479 262.618 L14.479 256.762 L21.895 256.762 L21.895 262.618 L14.479 262.618 Z" fill="#000000" fill-rule="nonzero" fill-opacity="1" /><path clip-path="url(#clip720)" d="M18.2347 238.715 L28.3562 238.715 L28.3562 226.652 L32.9077 226.652 L32.9077 238.715 L52.2594 238.715 Q56.6199 238.715 57.8613 237.537 Q59.1026 236.328 59.1026 232.667 L59.1026 226.652 L64.0042 226.652 L64.0042 232.667 Q64.0042 239.447 61.4897 242.025 Q58.9434 244.603 52.2594 244.603 L32.9077 244.603 L32.9077 248.9 L28.3562 248.9 L28.3562 244.603 L18.2347 244.603 L18.2347 238.715 Z" fill="#000000" fill-rule="nonzero" fill-opacity="1" /><path clip-path="url(#clip720)" d="M67.3143 204.117 Q73.68 206.6 75.6216 208.955 Q77.5631 211.31 77.5631 215.257 L77.5631 219.936 L72.6615 219.936 L72.6615 216.498 Q72.6615 214.079 71.5157 212.743 Q70.3699 211.406 66.1048 209.783 L63.4312 208.732 L28.3562 223.151 L28.3562 216.944 L56.238 205.804 L28.3562 194.664 L28.3562 188.458 L67.3143 204.117 Z" fill="#000000" fill-rule="nonzero" fill-opacity="1" /><path clip-path="url(#clip720)" d="M940.587 18.8205 L940.587 41.5461 L950.876 41.5461 Q956.588 41.5461 959.707 38.5889 Q962.826 35.6318 962.826 30.163 Q962.826 24.7348 959.707 21.7777 Q956.588 18.8205 950.876 18.8205 L940.587 18.8205 M932.404 12.096 L950.876 12.096 Q961.044 12.096 966.229 16.714 Q971.455 21.2916 971.455 30.163 Q971.455 39.1155 966.229 43.6931 Q961.044 48.2706 950.876 48.2706 L940.587 48.2706 L940.587 72.576 L932.404 72.576 L932.404 12.096 Z" fill="#000000" fill-rule="nonzero" fill-opacity="1" /><path clip-path="url(#clip720)" d="M1006.94 34.1734 Q1005.68 33.4443 1004.19 33.1202 Q1002.73 32.7556 1000.95 32.7556 Q994.626 32.7556 991.223 36.8875 Q987.861 40.9789 987.861 48.6757 L987.861 72.576 L980.367 72.576 L980.367 27.2059 L987.861 27.2059 L987.861 34.2544 Q990.21 30.1225 993.978 28.1376 Q997.745 26.1121 1003.13 26.1121 Q1003.9 26.1121 1004.83 26.2337 Q1005.77 26.3147 1006.9 26.5172 L1006.94 34.1734 Z" fill="#000000" fill-rule="nonzero" fill-opacity="1" /><path clip-path="url(#clip720)" d="M1030.52 32.4315 Q1024.52 32.4315 1021.04 37.1306 Q1017.55 41.7891 1017.55 49.9314 Q1017.55 58.0738 1021 62.7728 Q1024.48 67.4314 1030.52 67.4314 Q1036.47 67.4314 1039.96 62.7323 Q1043.44 58.0333 1043.44 49.9314 Q1043.44 41.8701 1039.96 37.1711 Q1036.47 32.4315 1030.52 32.4315 M1030.52 26.1121 Q1040.24 26.1121 1045.79 32.4315 Q1051.34 38.7509 1051.34 49.9314 Q1051.34 61.0714 1045.79 67.4314 Q1040.24 73.7508 1030.52 73.7508 Q1020.75 73.7508 1015.2 67.4314 Q1009.7 61.0714 1009.7 49.9314 Q1009.7 38.7509 1015.2 32.4315 Q1020.75 26.1121 1030.52 26.1121 Z" fill="#000000" fill-rule="nonzero" fill-opacity="1" /><path clip-path="url(#clip720)" d="M1063.69 27.2059 L1071.15 27.2059 L1071.15 73.3862 Q1071.15 82.0551 1067.83 85.944 Q1064.54 89.8329 1057.21 89.8329 L1054.38 89.8329 L1054.38 83.5134 L1056.36 83.5134 Q1060.61 83.5134 1062.15 81.5285 Q1063.69 79.5841 1063.69 73.3862 L1063.69 27.2059 M1063.69 9.54393 L1071.15 9.54393 L1071.15 18.9825 L1063.69 18.9825 L1063.69 9.54393 Z" fill="#000000" fill-rule="nonzero" fill-opacity="1" /><path clip-path="url(#clip720)" d="M1125.55 48.0275 L1125.55 51.6733 L1091.28 51.6733 Q1091.77 59.3701 1095.9 63.421 Q1100.07 67.4314 1107.48 67.4314 Q1111.78 67.4314 1115.79 66.3781 Q1119.84 65.3249 1123.81 63.2184 L1123.81 70.267 Q1119.8 71.9684 1115.59 72.8596 Q1111.37 73.7508 1107.04 73.7508 Q1096.18 73.7508 1089.82 67.4314 Q1083.5 61.1119 1083.5 50.3365 Q1083.5 39.1965 1089.5 32.6746 Q1095.53 26.1121 1105.74 26.1121 Q1114.9 26.1121 1120.2 32.0264 Q1125.55 37.9003 1125.55 48.0275 M1118.1 45.84 Q1118.02 39.7232 1114.65 36.0774 Q1111.33 32.4315 1105.82 32.4315 Q1099.58 32.4315 1095.82 35.9558 Q1092.09 39.4801 1091.52 45.8805 L1118.1 45.84 Z" fill="#000000" fill-rule="nonzero" fill-opacity="1" /><path clip-path="url(#clip720)" d="M1170.43 28.9478 L1170.43 35.9153 Q1167.28 34.1734 1164.08 33.3227 Q1160.92 32.4315 1157.67 32.4315 Q1150.42 32.4315 1146.41 37.0496 Q1142.4 41.6271 1142.4 49.9314 Q1142.4 58.2358 1146.41 62.8538 Q1150.42 67.4314 1157.67 67.4314 Q1160.92 67.4314 1164.08 66.5807 Q1167.28 65.6895 1170.43 63.9476 L1170.43 70.8341 Q1167.32 72.2924 1163.95 73.0216 Q1160.63 73.7508 1156.86 73.7508 Q1146.62 73.7508 1140.58 67.3098 Q1134.54 60.8689 1134.54 49.9314 Q1134.54 38.832 1140.62 32.472 Q1146.74 26.1121 1157.35 26.1121 Q1160.79 26.1121 1164.08 26.8413 Q1167.36 27.5299 1170.43 28.9478 Z" fill="#000000" fill-rule="nonzero" fill-opacity="1" /><path clip-path="url(#clip720)" d="M1190.77 14.324 L1190.77 27.2059 L1206.12 27.2059 L1206.12 32.9987 L1190.77 32.9987 L1190.77 57.6282 Q1190.77 63.1779 1192.27 64.7578 Q1193.81 66.3376 1198.47 66.3376 L1206.12 66.3376 L1206.12 72.576 L1198.47 72.576 Q1189.84 72.576 1186.56 69.3758 Q1183.28 66.1351 1183.28 57.6282 L1183.28 32.9987 L1177.81 32.9987 L1177.81 27.2059 L1183.28 27.2059 L1183.28 14.324 L1190.77 14.324 Z" fill="#000000" fill-rule="nonzero" fill-opacity="1" /><path clip-path="url(#clip720)" d="M1215.93 27.2059 L1223.38 27.2059 L1223.38 72.576 L1215.93 72.576 L1215.93 27.2059 M1215.93 9.54393 L1223.38 9.54393 L1223.38 18.9825 L1215.93 18.9825 L1215.93 9.54393 Z" fill="#000000" fill-rule="nonzero" fill-opacity="1" /><path clip-path="url(#clip720)" d="M1256.56 32.4315 Q1250.56 32.4315 1247.08 37.1306 Q1243.59 41.7891 1243.59 49.9314 Q1243.59 58.0738 1247.04 62.7728 Q1250.52 67.4314 1256.56 67.4314 Q1262.51 67.4314 1266 62.7323 Q1269.48 58.0333 1269.48 49.9314 Q1269.48 41.8701 1266 37.1711 Q1262.51 32.4315 1256.56 32.4315 M1256.56 26.1121 Q1266.28 26.1121 1271.83 32.4315 Q1277.38 38.7509 1277.38 49.9314 Q1277.38 61.0714 1271.83 67.4314 Q1266.28 73.7508 1256.56 73.7508 Q1246.79 73.7508 1241.24 67.4314 Q1235.74 61.0714 1235.74 49.9314 Q1235.74 38.7509 1241.24 32.4315 Q1246.79 26.1121 1256.56 26.1121 Z" fill="#000000" fill-rule="nonzero" fill-opacity="1" /><path clip-path="url(#clip720)" d="M1327.45 45.1919 L1327.45 72.576 L1319.99 72.576 L1319.99 45.4349 Q1319.99 38.994 1317.48 35.7938 Q1314.97 32.5936 1309.95 32.5936 Q1303.91 32.5936 1300.43 36.4419 Q1296.94 40.2903 1296.94 46.9338 L1296.94 72.576 L1289.45 72.576 L1289.45 27.2059 L1296.94 27.2059 L1296.94 34.2544 Q1299.62 30.163 1303.22 28.1376 Q1306.87 26.1121 1311.61 26.1121 Q1319.43 26.1121 1323.44 30.9732 Q1327.45 35.7938 1327.45 45.1919 Z" fill="#000000" fill-rule="nonzero" fill-opacity="1" /><path clip-path="url(#clip720)" d="M1386.27 32.4315 Q1380.27 32.4315 1376.79 37.1306 Q1373.3 41.7891 1373.3 49.9314 Q1373.3 58.0738 1376.75 62.7728 Q1380.23 67.4314 1386.27 67.4314 Q1392.22 67.4314 1395.71 62.7323 Q1399.19 58.0333 1399.19 49.9314 Q1399.19 41.8701 1395.71 37.1711 Q1392.22 32.4315 1386.27 32.4315 M1386.27 26.1121 Q1395.99 26.1121 1401.54 32.4315 Q1407.09 38.7509 1407.09 49.9314 Q1407.09 61.0714 1401.54 67.4314 Q1395.99 73.7508 1386.27 73.7508 Q1376.5 73.7508 1370.95 67.4314 Q1365.45 61.0714 1365.45 49.9314 Q1365.45 38.7509 1370.95 32.4315 Q1376.5 26.1121 1386.27 26.1121 Z" fill="#000000" fill-rule="nonzero" fill-opacity="1" /><path clip-path="url(#clip720)" d="M1457.16 45.1919 L1457.16 72.576 L1449.7 72.576 L1449.7 45.4349 Q1449.7 38.994 1447.19 35.7938 Q1444.68 32.5936 1439.66 32.5936 Q1433.62 32.5936 1430.14 36.4419 Q1426.65 40.2903 1426.65 46.9338 L1426.65 72.576 L1419.16 72.576 L1419.16 27.2059 L1426.65 27.2059 L1426.65 34.2544 Q1429.33 30.163 1432.93 28.1376 Q1436.58 26.1121 1441.32 26.1121 Q1449.14 26.1121 1453.15 30.9732 Q1457.16 35.7938 1457.16 45.1919 Z" fill="#000000" fill-rule="nonzero" fill-opacity="1" /><path clip-path="url(#clip720)" d="M1479.4 14.324 L1479.4 27.2059 L1494.75 27.2059 L1494.75 32.9987 L1479.4 32.9987 L1479.4 57.6282 Q1479.4 63.1779 1480.9 64.7578 Q1482.44 66.3376 1487.09 66.3376 L1494.75 66.3376 L1494.75 72.576 L1487.09 72.576 Q1478.47 72.576 1475.18 69.3758 Q1471.9 66.1351 1471.9 57.6282 L1471.9 32.9987 L1466.43 32.9987 L1466.43 27.2059 L1471.9 27.2059 L1471.9 14.324 L1479.4 14.324 Z" fill="#000000" fill-rule="nonzero" fill-opacity="1" /><path clip-path="url(#clip720)" d="M1522.13 32.4315 Q1516.14 32.4315 1512.66 37.1306 Q1509.17 41.7891 1509.17 49.9314 Q1509.17 58.0738 1512.61 62.7728 Q1516.1 67.4314 1522.13 67.4314 Q1528.09 67.4314 1531.57 62.7323 Q1535.06 58.0333 1535.06 49.9314 Q1535.06 41.8701 1531.57 37.1711 Q1528.09 32.4315 1522.13 32.4315 M1522.13 26.1121 Q1531.86 26.1121 1537.41 32.4315 Q1542.96 38.7509 1542.96 49.9314 Q1542.96 61.0714 1537.41 67.4314 Q1531.86 73.7508 1522.13 73.7508 Q1512.37 73.7508 1506.82 67.4314 Q1501.31 61.0714 1501.31 49.9314 Q1501.31 38.7509 1506.82 32.4315 Q1512.37 26.1121 1522.13 26.1121 Z" fill="#000000" fill-rule="nonzero" fill-opacity="1" /><path clip-path="url(#clip720)" d="M1599.26 33.1202 Q1593.11 33.1202 1589.78 37.5762 Q1586.3 42.2347 1586.3 49.9314 Q1586.3 58.0738 1589.74 62.7728 Q1593.23 67.4314 1599.26 67.4314 Q1605.22 67.4314 1608.7 62.7323 Q1612.19 58.0333 1612.19 49.9314 Q1612.19 42.5183 1608.7 37.5762 Q1605.5 33.1202 1599.26 33.1202 M1599.26 27.2059 L1624.01 27.2059 L1624.01 34.6595 L1615.67 34.6595 Q1620.09 40.9789 1620.09 49.9314 Q1620.09 61.0714 1614.54 67.3908 Q1608.99 73.7508 1599.26 73.7508 Q1589.5 73.7508 1583.99 67.3908 Q1578.44 61.0714 1578.44 49.9314 Q1578.44 38.7104 1583.99 32.4315 Q1588.57 27.2059 1599.26 27.2059 Z" fill="#000000" fill-rule="nonzero" fill-opacity="1" /><path clip-path="url(#clip720)" d="M1637.3 67.958 L1654.48 67.958 L1654.48 72.576 L1630.25 72.576 L1630.25 68.12 Q1631.63 66.8642 1634.18 64.5957 Q1648.12 52.2405 1648.12 48.4326 Q1648.12 45.759 1646.01 44.1387 Q1643.9 42.4778 1640.46 42.4778 Q1638.35 42.4778 1635.88 43.2069 Q1633.41 43.8956 1630.5 45.3134 L1630.5 40.3308 Q1633.62 39.1965 1636.29 38.6294 Q1639 38.0623 1641.31 38.0623 Q1647.19 38.0623 1650.71 40.7359 Q1654.23 43.4095 1654.23 47.7845 Q1654.23 53.4152 1640.83 64.9198 Q1638.56 66.8642 1637.3 67.958 Z" fill="#000000" fill-rule="nonzero" fill-opacity="1" /><path clip-path="url(#clip721)" d="M234.125 1400.54 L255.526 1365.28 L276.926 1288.11 L298.326 1116.7 L319.727 1009.06 L341.127 968.115 L362.527 946.723 L383.928 931.977 L405.328 919.388 L426.728 906.485 L448.129 890.845 L469.529 868.399 L490.929 829.214 L512.329 740.827 L533.73 520.134 L555.13 312.498 L576.53 231.927 L597.931 196.296 L619.331 176.739 L640.731 164.424 L662.132 155.953 L683.532 149.766 L704.932 145.048 L726.333 141.335 L747.733 138.342 L769.133 135.885 L790.533 133.838 L811.934 132.115 L833.334 130.653 L854.734 129.404 L876.135 128.334 L897.535 127.416 L918.935 126.628 L940.336 125.953 L961.736 125.379 L983.136 124.894 L1004.54 124.491 L1025.94 124.162 L1047.34 123.901 L1068.74 123.705 L1090.14 123.57 L1111.54 123.493 L1132.94 123.472 L1154.34 123.507 L1175.74 123.596 L1197.14 123.739 L1218.54 123.938 L1239.94 124.194 L1261.34 124.508 L1282.74 124.882 L1304.14 125.321 L1325.54 125.829 L1346.94 126.41 L1368.34 127.071 L1389.74 127.82 L1411.14 128.666 L1432.54 129.621 L1453.94 130.7 L1475.34 131.919 L1496.74 133.301 L1518.14 134.874 L1539.54 136.673 L1560.94 138.743 L1582.34 141.146 L1603.75 143.962 L1625.15 147.303 L1646.55 151.328 L1667.95 156.265 L1689.35 162.468 L1710.75 170.495 L1732.15 181.296 L1753.55 196.603 L1774.95 219.9 L1796.35 259.031 L1817.75 333.388 L1839.15 479.088 L1860.55 659.037 L1881.95 767.986 L1903.35 822.947 L1924.75 854.031 L1946.15 873.992 L1967.55 888.185 L1988.95 899.155 L2010.35 908.278 L2031.75 916.402 L2053.15 924.138 L2074.55 932.021 L2095.95 940.64 L2117.35 950.792 L2138.75 963.772 L2160.15 981.996 L2181.55 1010.55 L2202.95 1060.64 L2224.35 1148.26 L2245.75 1250.74 L2267.15 1318.29 L2288.55 1355.83 L2309.96 1378.76 L2331.36 1394.99 L2352.76 1409.39 L2352.76 1423.18 L2331.36 1423.18 L2309.96 1423.18 L2288.55 1423.18 L2267.15 1423.18 L2245.75 1423.18 L2224.35 1423.18 L2202.95 1423.18 L2181.55 1423.18 L2160.15 1423.18 L2138.75 1423.18 L2117.35 1423.18 L2095.95 1423.18 L2074.55 1423.18 L2053.15 1423.18 L2031.75 1423.18 L2010.35 1423.18 L1988.95 1423.18 L1967.55 1423.18 L1946.15 1423.18 L1924.75 1423.18 L1903.35 1423.18 L1881.95 1423.18 L1860.55 1423.18 L1839.15 1423.18 L1817.75 1423.18 L1796.35 1423.18 L1774.95 1423.18 L1753.55 1423.18 L1732.15 1423.18 L1710.75 1423.18 L1689.35 1423.18 L1667.95 1423.18 L1646.55 1423.18 L1625.15 1423.18 L1603.75 1423.18 L1582.34 1423.18 L1560.94 1423.18 L1539.54 1423.18 L1518.14 1423.18 L1496.74 1423.18 L1475.34 1423.18 L1453.94 1423.18 L1432.54 1423.18 L1411.14 1423.18 L1389.74 1423.18 L1368.34 1423.18 L1346.94 1423.18 L1325.54 1423.18 L1304.14 1423.18 L1282.74 1423.18 L1261.34 1423.18 L1239.94 1423.18 L1218.54 1423.18 L1197.14 1423.18 L1175.74 1423.18 L1154.34 1423.18 L1132.94 1423.18 L1111.54 1423.18 L1090.14 1423.18 L1068.74 1423.18 L1047.34 1423.18 L1025.94 1423.18 L1004.54 1423.18 L983.136 1423.18 L961.736 1423.18 L940.336 1423.18 L918.935 1423.18 L897.535 1423.18 L876.135 1423.18 L854.734 1423.18 L833.334 1423.18 L811.934 1423.18 L790.533 1423.18 L769.133 1423.18 L747.733 1423.18 L726.333 1423.18 L704.932 1423.18 L683.532 1423.18 L662.132 1423.18 L640.731 1423.18 L619.331 1423.18 L597.931 1423.18 L576.53 1423.18 L555.13 1423.18 L533.73 1423.18 L512.329 1423.18 L490.929 1423.18 L469.529 1423.18 L448.129 1423.18 L426.728 1423.18 L405.328 1423.18 L383.928 1423.18 L362.527 1423.18 L341.127 1423.18 L319.727 1423.18 L298.326 1423.18 L276.926 1423.18 L255.526 1423.18 L234.125 1423.18  Z" fill="#e69f00" fill-rule="evenodd" fill-opacity="0.5"/>
<polyline clip-path="url(#clip721)" style="stroke:#e69f00; stroke-linecap:round; stroke-linejoin:round; stroke-width:4; stroke-opacity:1; fill:none" points="234.125,1400.54 255.526,1365.28 276.926,1288.11 298.326,1116.7 319.727,1009.06 341.127,968.115 362.527,946.723 383.928,931.977 405.328,919.388 426.728,906.485 448.129,890.845 469.529,868.399 490.929,829.214 512.329,740.827 533.73,520.134 555.13,312.498 576.53,231.927 597.931,196.296 619.331,176.739 640.731,164.424 662.132,155.953 683.532,149.766 704.932,145.048 726.333,141.335 747.733,138.342 769.133,135.885 790.533,133.838 811.934,132.115 833.334,130.653 854.734,129.404 876.135,128.334 897.535,127.416 918.935,126.628 940.336,125.953 961.736,125.379 983.136,124.894 1004.54,124.491 1025.94,124.162 1047.34,123.901 1068.74,123.705 1090.14,123.57 1111.54,123.493 1132.94,123.472 1154.34,123.507 1175.74,123.596 1197.14,123.739 1218.54,123.938 1239.94,124.194 1261.34,124.508 1282.74,124.882 1304.14,125.321 1325.54,125.829 1346.94,126.41 1368.34,127.071 1389.74,127.82 1411.14,128.666 1432.54,129.621 1453.94,130.7 1475.34,131.919 1496.74,133.301 1518.14,134.874 1539.54,136.673 1560.94,138.743 1582.34,141.146 1603.75,143.962 1625.15,147.303 1646.55,151.328 1667.95,156.265 1689.35,162.468 1710.75,170.495 1732.15,181.296 1753.55,196.603 1774.95,219.9 1796.35,259.031 1817.75,333.388 1839.15,479.088 1860.55,659.037 1881.95,767.986 1903.35,822.947 1924.75,854.031 1946.15,873.992 1967.55,888.185 1988.95,899.155 2010.35,908.278 2031.75,916.402 2053.15,924.138 2074.55,932.021 2095.95,940.64 2117.35,950.792 2138.75,963.772 2160.15,981.996 2181.55,1010.55 2202.95,1060.64 2224.35,1148.26 2245.75,1250.74 2267.15,1318.29 2288.55,1355.83 2309.96,1378.76 2331.36,1394.99 2352.76,1409.39 "/>
</svg>
